<svg class="svg-icon" style="width: 1em; height: 1em;vertical-align: middle;fill: currentColor;overflow: hidden;" viewBox="0 0 1024 1024" version="1.1" xmlns="http://www.w3.org/2000/svg"><path d="M597.333333 853.333333a85.333333 85.333333 0 0 1-85.333333 85.333334 85.333333 85.333333 0 0 1-85.333333-85.333334h170.666666m244.906667 66.986667L732.586667 810.666667H128l128-128v-256c0-27.733333 4.266667-54.613333 12.8-79.786667L148.053333 226.133333l60.586667-60.16 102.4 102.4 591.36 591.36-60.16 60.586667M469.333333 174.08V128a42.666667 42.666667 0 0 1 42.666667-42.666667 42.666667 42.666667 0 0 1 42.666667 42.666667v46.08c121.173333 20.48 213.333333 125.866667 213.333333 252.586667v177.92L374.186667 210.773333c28.586667-18.773333 60.586667-30.72 95.146666-36.693333z" fill="" /></svg>