<?xml version="1.0" encoding="UTF-8" standalone="no"?>
<svg
   height="48"
   width="48"
   version="1.1"
   id="svg18643"
   sodipodi:docname="fair-6.svg"
   inkscape:version="1.1 (c4e8f9ed74, 2021-05-24)"
   xmlns:inkscape="http://www.inkscape.org/namespaces/inkscape"
   xmlns:sodipodi="http://sodipodi.sourceforge.net/DTD/sodipodi-0.dtd"
   xmlns="http://www.w3.org/2000/svg"
   xmlns:svg="http://www.w3.org/2000/svg">
  <defs
     id="defs18647" />
  <sodipodi:namedview
     id="namedview18645"
     pagecolor="#505050"
     bordercolor="#eeeeee"
     borderopacity="1"
     inkscape:pageshadow="0"
     inkscape:pageopacity="0"
     inkscape:pagecheckerboard="0"
     showgrid="false"
     inkscape:zoom="17.3125"
     inkscape:cx="13.025271"
     inkscape:cy="22.440433"
     inkscape:window-width="1918"
     inkscape:window-height="1045"
     inkscape:window-x="1920"
     inkscape:window-y="33"
     inkscape:window-maximized="1"
     inkscape:current-layer="svg18643" />
  <g
     fill="#a0a0a0"
     id="g18641">
    <path
       id="path18633"
       style="color:#000000;fill:#a0a0a0;-inkscape-stroke:none"
       d="M 0 0 L 0 20 L 8.7851562 20 C 9.0458994 18.806325 9.3798619 17.648305 9.8007812 16.53125 L 9.8125 16.5 L 9.8242188 16.470703 C 11.017857 13.420293 12.779001 10.697709 15.072266 8.4980469 C 16.531916 7.097973 18.192606 5.9227919 20 4.9765625 L 20 0 L 0 0 z M 28 0 L 28 2.4101562 C 29.615004 2.1603995 31.279529 2.0390625 32.986328 2.0390625 L 37.664062 2.0390625 L 38.695312 17.507812 L 34.699219 17.607422 C 35.231976 18.042275 35.784811 18.453957 36.244141 18.970703 C 36.535532 19.298519 36.806328 19.644031 37.0625 20 L 48 20 L 48 0 L 28 0 z M 31.140625 15.392578 C 31.147345 15.395478 31.153456 15.399544 31.160156 15.402344 C 31.167776 15.405644 31.175994 15.406856 31.183594 15.410156 L 31.140625 15.392578 z M 0 28 L 0 48 L 20 48 L 20 45.431641 C 16.95848 44.686875 14.199002 43.152164 12.181641 40.804688 L 12.154297 40.773438 L 12.126953 40.742188 C 9.3309254 37.376599 8.2687392 33.009053 8.1230469 28 L 0 28 z M 39.822266 28 C 39.872491 28.566343 39.90625 29.134825 39.90625 29.707031 C 39.90625 31.525458 39.594508 33.338902 39.03125 35.091797 C 38.464063 36.968119 37.55524 38.734882 36.353516 40.287109 C 35.057417 41.961236 33.391812 43.335771 31.523438 44.345703 L 31.478516 44.371094 L 31.431641 44.394531 C 30.343232 44.953444 29.189983 45.348073 28 45.601562 L 28 48 L 48 48 L 48 28 L 39.822266 28 z M 33.121094 32.763672 C 33.113154 32.799394 33.086425 32.829554 33.078125 32.865234 C 33.065045 32.914465 33.070261 32.968558 33.056641 33.017578 L 33.121094 32.763672 z M 31.78125 36.011719 C 31.76264 36.042739 31.726051 36.059034 31.707031 36.089844 C 31.682651 36.127541 31.679187 36.175551 31.654297 36.212891 L 31.78125 36.011719 z " />
  </g>
  <g
     aria-label="6"
     id="text19717"
     style="font-weight:bold;font-size:53.3333px;font-family:'Ubuntu Mono';-inkscape-font-specification:'Ubuntu Mono Bold';fill:#a0a0a0;stroke:#000000;stroke-width:10">
    <g
       id="path104828">
      <path
         style="color:#000000;-inkscape-font-specification:'Ubuntu Mono Bold';stroke:none;-inkscape-stroke:none"
         d="m 23.493334,24.586668 q -1.013333,0 -2.079999,0.213333 -1.066666,0.213334 -1.759999,0.586667 -0.05333,0.479999 -0.106667,0.959999 0,0.48 0,1.013333 0,1.546666 0.213334,2.986665 0.213333,1.386666 0.746666,2.506665 0.533333,1.119999 1.439999,1.813332 0.959999,0.64 2.346665,0.64 1.12,0 1.919999,-0.533333 0.8,-0.533333 1.279999,-1.333333 0.533333,-0.799999 0.746666,-1.759999 0.266667,-0.959999 0.266667,-1.866665 0,-2.506665 -1.119999,-3.839998 -1.12,-1.386666 -3.893331,-1.386666 z m 0.853332,-5.439997 q 2.879999,0 4.853331,0.853333 2.026665,0.853333 3.306665,2.293332 1.279999,1.439999 1.813332,3.359998 0.586666,1.919999 0.586666,4.053331 0,1.919999 -0.639999,3.893331 -0.586667,1.973332 -1.866666,3.626665 -1.279999,1.653332 -3.253331,2.719998 -1.973333,1.013333 -4.693331,1.013333 -5.546663,0 -8.479995,-3.413332 -2.879998,-3.466664 -2.879998,-10.773327 0,-4.799997 1.386666,-8.479994 1.439999,-3.679998 4.053331,-6.186663 2.613331,-2.5066656 6.293329,-3.7866648 3.679998,-1.2799993 8.159995,-1.2799993 l 0.373333,5.5999971 q -2.133332,0.05333 -4.159997,0.426666 -2.026666,0.373333 -3.733331,1.279999 -1.706666,0.853333 -2.986665,2.239999 -1.226666,1.386666 -1.813332,3.466664 1.013332,-0.426666 1.973332,-0.639999 Q 23.6,19.146671 24.346666,19.146671 Z"
         id="path104851" />
    </g>
  </g>
</svg>
