<?xml version="1.0" encoding="UTF-8" standalone="no"?>
<svg
   height="48"
   width="48"
   version="1.1"
   id="svg18643"
   sodipodi:docname="fair-1.svg"
   inkscape:version="1.1 (c4e8f9ed74, 2021-05-24)"
   xmlns:inkscape="http://www.inkscape.org/namespaces/inkscape"
   xmlns:sodipodi="http://sodipodi.sourceforge.net/DTD/sodipodi-0.dtd"
   xmlns="http://www.w3.org/2000/svg"
   xmlns:svg="http://www.w3.org/2000/svg">
  <defs
     id="defs18647" />
  <sodipodi:namedview
     id="namedview18645"
     pagecolor="#505050"
     bordercolor="#eeeeee"
     borderopacity="1"
     inkscape:pageshadow="0"
     inkscape:pageopacity="0"
     inkscape:pagecheckerboard="0"
     showgrid="false"
     inkscape:zoom="17.3125"
     inkscape:cx="13.025271"
     inkscape:cy="15.971119"
     inkscape:window-width="1918"
     inkscape:window-height="1045"
     inkscape:window-x="1920"
     inkscape:window-y="33"
     inkscape:window-maximized="1"
     inkscape:current-layer="svg18643" />
  <g
     fill="#a0a0a0"
     id="g18641">
    <path
       id="path18633"
       style="color:#000000;fill:#a0a0a0;-inkscape-stroke:none"
       d="M 0 0 L 0 20 L 9.875 20 L 6.53125 11.474609 L 11.285156 9.6914062 C 11.938967 9.4462271 12.710346 9.1077175 13.578125 8.6738281 C 14.445904 8.2399391 15.321054 7.7554793 16.205078 7.21875 C 17.058567 6.7005601 17.856673 6.1579127 18.601562 5.5917969 C 19.1789 5.1530207 19.628101 4.7393981 20 4.3515625 L 20 0 L 0 0 z M 28 0 L 28 2.4941406 L 33.400391 2.4941406 L 33.400391 20 L 48 20 L 48 0 L 28 0 z M 0 28 L 0 48 L 20 48 L 20 45.505859 L 9.90625 45.505859 L 9.90625 30.066406 L 16.839844 30.066406 L 16.839844 28 L 0 28 z M 33.400391 28 L 33.400391 30.066406 L 39.960938 30.066406 L 39.960938 45.505859 L 28 45.505859 L 28 48 L 48 48 L 48 28 L 33.400391 28 z " />
  </g>
  <g
     aria-label="1"
     id="text19717"
     style="font-weight:bold;font-size:53.3333px;font-family:'Ubuntu Mono';-inkscape-font-specification:'Ubuntu Mono Bold';fill:#a0a0a0;stroke:#000000;stroke-width:10">
    <g
       id="path27010">
      <path
         style="color:#000000;-inkscape-font-specification:'Ubuntu Mono Bold';stroke:none;-inkscape-stroke:none"
         d="M 21.840001,35.06666 V 16.613338 q -1.493332,1.066666 -3.413331,1.919998 -1.919999,0.8 -3.253331,1.28 l -2.133332,-5.439997 q 1.279999,-0.48 2.773331,-1.226666 1.493333,-0.746666 2.986665,-1.653332 1.493333,-0.906667 2.826665,-1.9199992 Q 22.960001,8.560009 23.92,7.493343 h 4.479997 V 35.06666 h 6.559997 v 5.439997 H 14.906672 V 35.06666 Z"
         id="path27033" />
    </g>
  </g>
</svg>
