<?xml version="1.0" encoding="UTF-8" standalone="no"?>
<svg
   height="48"
   width="48"
   version="1.1"
   id="svg12917"
   sodipodi:docname="floating-4.svg"
   inkscape:version="1.1 (c4e8f9ed74, 2021-05-24)"
   xmlns:inkscape="http://www.inkscape.org/namespaces/inkscape"
   xmlns:sodipodi="http://sodipodi.sourceforge.net/DTD/sodipodi-0.dtd"
   xmlns="http://www.w3.org/2000/svg"
   xmlns:svg="http://www.w3.org/2000/svg">
  <defs
     id="defs12921" />
  <sodipodi:namedview
     id="namedview12919"
     pagecolor="#505050"
     bordercolor="#eeeeee"
     borderopacity="1"
     inkscape:pageshadow="0"
     inkscape:pageopacity="0"
     inkscape:pagecheckerboard="0"
     showgrid="false"
     inkscape:zoom="17.3125"
     inkscape:cx="13.025271"
     inkscape:cy="24.693141"
     inkscape:window-width="1918"
     inkscape:window-height="1045"
     inkscape:window-x="1920"
     inkscape:window-y="33"
     inkscape:window-maximized="1"
     inkscape:current-layer="svg12917" />
  <path
     id="path12915"
     style="color:#000000;fill:#a0a0a0;stroke-width:1.06662;-inkscape-stroke:none"
     d="M 23.998047 0 C 23.998047 0 20.347656 3.1631897 20.347656 6.2617188 L 20.347656 6.7890625 C 21.213121 5.7897154 22.086267 4.8414668 22.970703 3.9570312 L 24.435547 2.4941406 L 26.195312 2.4941406 C 25.175908 1.0400622 23.998047 0 23.998047 0 z M 7.0527344 31.556641 L 0.5234375 38.085938 L 1.5664062 40.173828 L 7.0527344 37.582031 L 7.0527344 31.556641 z M 40.947266 31.556641 L 40.947266 37.583984 L 46.433594 40.173828 L 47.476562 38.085938 L 40.947266 31.556641 z M 20.347656 37.720703 L 20.347656 41.738281 L 14.085938 48 L 23.998047 48 L 33.910156 48 L 31.416016 45.505859 L 20.8125 45.505859 L 20.8125 37.720703 L 20.347656 37.720703 z " />
  <g
     aria-label="4"
     id="text14312"
     style="font-weight:bold;font-size:53.3333px;font-family:'Ubuntu Mono';-inkscape-font-specification:'Ubuntu Mono Bold';fill:#a0a0a0;stroke:#000000;stroke-width:10">
    <g
       id="path67594">
      <path
         style="color:#000000;-inkscape-font-specification:'Ubuntu Mono Bold';stroke:none;-inkscape-stroke:none"
         d="m 25.813332,15.706671 q -0.959999,1.226666 -1.973332,2.613332 -1.013333,1.386666 -2.026665,2.933332 -0.96,1.493332 -1.866666,3.039998 -0.906666,1.546666 -1.599999,3.039998 h 7.466662 z m 6.559996,-8.213328 v 19.839988 h 3.573332 v 5.386664 h -3.573332 v 7.786662 H 25.813332 V 32.719995 H 12.05334 v -4.799998 q 1.013333,-2.079998 2.613332,-4.69333 1.599999,-2.666665 3.519998,-5.439997 1.919999,-2.773331 4.053331,-5.439997 2.133332,-2.7199979 4.266664,-4.85333 z"
         id="path67617" />
    </g>
  </g>
</svg>
