<?xml version="1.0" encoding="UTF-8" standalone="no"?>
<svg
   height="48"
   width="48"
   version="1.1"
   id="svg12917"
   sodipodi:docname="floating-2.svg"
   inkscape:version="1.1 (c4e8f9ed74, 2021-05-24)"
   xmlns:inkscape="http://www.inkscape.org/namespaces/inkscape"
   xmlns:sodipodi="http://sodipodi.sourceforge.net/DTD/sodipodi-0.dtd"
   xmlns="http://www.w3.org/2000/svg"
   xmlns:svg="http://www.w3.org/2000/svg">
  <defs
     id="defs12921" />
  <sodipodi:namedview
     id="namedview12919"
     pagecolor="#505050"
     bordercolor="#eeeeee"
     borderopacity="1"
     inkscape:pageshadow="0"
     inkscape:pageopacity="0"
     inkscape:pagecheckerboard="0"
     showgrid="false"
     inkscape:zoom="17.3125"
     inkscape:cx="13.025271"
     inkscape:cy="24.635379"
     inkscape:window-width="1918"
     inkscape:window-height="1045"
     inkscape:window-x="1920"
     inkscape:window-y="33"
     inkscape:window-maximized="1"
     inkscape:current-layer="svg12917" />
  <path
     id="path12915"
     style="color:#000000;fill:#a0a0a0;stroke-width:1.06662;-inkscape-stroke:none"
     d="M 23.998047 0 C 23.998047 0 22.989694 0.88621986 22.03125 2.1679688 C 22.465035 2.1386944 22.899446 2.1191406 23.333984 2.1191406 C 24.254753 2.1191406 25.172637 2.18868 26.078125 2.3261719 C 25.087921 0.96111906 23.998047 0 23.998047 0 z M 30.111328 22.712891 C 30.097438 22.732951 30.074527 22.749501 30.060547 22.769531 C 30.050577 22.783311 30.047129 22.802696 30.037109 22.816406 L 30.111328 22.712891 z M 15.169922 23.4375 L 0.5234375 38.085938 L 1.5664062 40.173828 L 8.5898438 36.857422 C 8.7435672 35.022761 9.1657317 33.228527 9.8847656 31.550781 L 9.9042969 31.503906 L 9.9238281 31.458984 C 10.764573 29.600495 11.821652 27.864535 13.082031 26.289062 L 13.087891 26.283203 L 13.09375 26.277344 C 13.819865 25.37596 14.625479 24.591932 15.408203 23.773438 L 15.169922 23.4375 z M 35.318359 25.927734 C 34.481354 27.087469 33.552137 28.196324 32.537109 29.251953 C 32.14208 29.662784 31.728444 30.040967 31.326172 30.439453 L 39.830078 30.439453 L 35.318359 25.927734 z M 19.158203 28.505859 L 19.066406 28.613281 C 19.084136 28.592001 19.105247 28.573954 19.123047 28.552734 C 19.136047 28.537924 19.145163 28.520639 19.158203 28.505859 z M 40.173828 30.783203 L 40.173828 37.21875 L 46.433594 40.173828 L 47.476562 38.085938 L 40.173828 30.783203 z M 16.205078 45.880859 L 14.085938 48 L 23.998047 48 L 33.910156 48 L 31.791016 45.880859 L 16.205078 45.880859 z " />
  <g
     aria-label="2"
     id="text14312"
     style="font-weight:bold;font-size:53.3333px;font-family:'Ubuntu Mono';-inkscape-font-specification:'Ubuntu Mono Bold';fill:#a0a0a0;stroke:#000000;stroke-width:10">
    <g
       id="path34740">
      <path
         style="color:#000000;-inkscape-font-specification:'Ubuntu Mono Bold';stroke:none;-inkscape-stroke:none"
         d="m 33.679994,16.560004 q 0,1.706666 -0.639999,3.306665 -0.64,1.546666 -1.706666,3.039998 -1.066666,1.493332 -2.399999,2.879998 -1.333332,1.386666 -2.719998,2.666665 -0.693333,0.64 -1.599999,1.546666 -0.906666,0.853333 -1.706666,1.813332 -0.799999,0.906666 -1.386665,1.866666 -0.533333,0.959999 -0.533333,1.759999 H 35.173327 V 40.87999 H 13.626673 q -0.16,-0.533333 -0.16,-1.333333 0.05333,-0.799999 0.05333,-1.119999 0,-2.666665 0.96,-4.906664 1.013332,-2.239999 2.506665,-4.106664 1.546666,-1.919999 3.253331,-3.519998 1.759999,-1.653332 3.253332,-3.146665 1.546665,-1.493332 2.506665,-2.879998 1.013333,-1.386666 1.013333,-2.826665 0,-2.026666 -1.226666,-3.093332 -1.226666,-1.119999 -3.093332,-1.119999 -1.546666,0 -3.253331,0.746666 -1.706666,0.746666 -3.359998,2.506665 L 12.826673,11.49334 q 2.133332,-2.2399982 4.906664,-3.3066642 2.826665,-1.0666661 5.599997,-1.0666661 2.026665,0 3.893331,0.5866664 1.866665,0.5866663 3.306664,1.7599989 1.44,1.173333 2.293332,2.986665 0.853333,1.759999 0.853333,4.106664 z"
         id="path34763" />
    </g>
  </g>
</svg>
