<?xml version="1.0" encoding="UTF-8" standalone="no"?>
<svg
   height="48"
   width="48"
   version="1.1"
   id="svg12917"
   sodipodi:docname="floating-3.svg"
   inkscape:version="1.1 (c4e8f9ed74, 2021-05-24)"
   xmlns:inkscape="http://www.inkscape.org/namespaces/inkscape"
   xmlns:sodipodi="http://sodipodi.sourceforge.net/DTD/sodipodi-0.dtd"
   xmlns="http://www.w3.org/2000/svg"
   xmlns:svg="http://www.w3.org/2000/svg">
  <defs
     id="defs12921" />
  <sodipodi:namedview
     id="namedview12919"
     pagecolor="#505050"
     bordercolor="#eeeeee"
     borderopacity="1"
     inkscape:pageshadow="0"
     inkscape:pageopacity="0"
     inkscape:pagecheckerboard="0"
     showgrid="false"
     inkscape:zoom="17.3125"
     inkscape:cx="13.025271"
     inkscape:cy="25.039711"
     inkscape:window-width="1918"
     inkscape:window-height="1045"
     inkscape:window-x="1920"
     inkscape:window-y="33"
     inkscape:window-maximized="1"
     inkscape:current-layer="svg12917" />
  <path
     id="path12915"
     style="color:#000000;fill:#a0a0a0;stroke-width:1.06662;-inkscape-stroke:none"
     d="M 23.998047 0 C 23.998047 0 23.184396 0.71715221 22.326172 1.7851562 C 22.492693 1.7813359 22.659026 1.7734375 22.826172 1.7734375 C 23.848376 1.7734375 24.84356 1.8342571 25.814453 1.9589844 C 24.904435 0.78731085 23.998047 0 23.998047 0 z M 13.880859 24.726562 L 11.414062 27.193359 L 13.880859 28.265625 L 13.880859 24.726562 z M 10.585938 28.021484 L 0.5234375 38.085938 L 1.5664062 40.173828 L 8.5214844 36.890625 L 10.585938 28.021484 z M 39.927734 30.537109 C 39.928486 30.598333 39.933594 30.659497 39.933594 30.720703 C 39.933594 32.745242 39.601649 34.745567 38.894531 36.615234 L 46.433594 40.173828 L 47.476562 38.085938 L 39.927734 30.537109 z M 30.697266 44.785156 C 30.312881 44.941432 29.924188 45.090375 29.527344 45.222656 L 29.480469 45.240234 L 29.431641 45.253906 C 27.20969 45.94518 24.821019 46.226562 22.240234 46.226562 C 21.146088 46.226563 20.037227 46.130822 18.908203 45.958984 C 18.098441 45.859028 17.299334 45.729582 16.507812 45.578125 L 14.085938 48 L 23.998047 48 L 33.910156 48 L 30.697266 44.785156 z " />
  <g
     aria-label="3"
     id="text14312"
     style="font-weight:bold;font-size:53.3333px;font-family:'Ubuntu Mono';-inkscape-font-specification:'Ubuntu Mono Bold';fill:#a0a0a0;stroke:#000000;stroke-width:10">
    <g
       id="path53564">
      <path
         style="color:#000000;-inkscape-font-specification:'Ubuntu Mono Bold';stroke:none;-inkscape-stroke:none"
         d="m 22.240001,41.226658 q -1.226666,0 -2.613332,-0.213333 -1.333332,-0.16 -2.613332,-0.426667 -1.226666,-0.266666 -2.293332,-0.586666 -1.066666,-0.32 -1.653332,-0.586666 l 1.279999,-5.49333 q 1.226666,0.533333 3.146665,1.119999 1.973332,0.586666 4.693331,0.586666 3.359998,0 4.69333,-1.439999 1.386666,-1.439999 1.386666,-3.573331 0,-2.613332 -2.079999,-3.626664 -2.079998,-1.066666 -5.279997,-1.066666 h -2.026665 v -5.439997 h 2.453332 q 1.013333,0 2.026665,-0.213333 1.013333,-0.213334 1.813333,-0.693333 0.799999,-0.48 1.279999,-1.28 0.533333,-0.799999 0.533333,-2.026665 0,-1.813332 -1.12,-2.826665 -1.066666,-1.066666 -2.986664,-1.066666 -1.866666,0 -3.733332,0.64 -1.813332,0.586666 -3.146664,1.493332 L 13.653339,9.7066769 q 1.44,-0.9599994 3.786665,-1.9199989 2.399998,-1.0133327 5.386663,-1.0133327 2.773332,0 4.799997,0.6933329 2.079999,0.693333 3.413332,1.9733322 1.333332,1.2266656 1.973332,2.9333316 0.64,1.706666 0.64,3.679998 0,1.973332 -1.12,3.786664 -1.119999,1.813332 -2.986665,2.773332 2.559999,1.066666 3.946665,3.146665 1.439999,2.079998 1.439999,4.959997 0,2.293332 -0.746666,4.213331 -0.746667,1.919998 -2.293332,3.359998 -1.546666,1.386665 -3.946665,2.186665 -2.399998,0.746666 -5.706663,0.746666 z"
         id="path53587" />
    </g>
  </g>
</svg>
