<?xml version="1.0" encoding="UTF-8" standalone="no"?>
<svg
   height="48"
   width="48"
   version="1.1"
   id="svg12917"
   sodipodi:docname="floating-1.svg"
   inkscape:version="1.1 (c4e8f9ed74, 2021-05-24)"
   xmlns:inkscape="http://www.inkscape.org/namespaces/inkscape"
   xmlns:sodipodi="http://sodipodi.sourceforge.net/DTD/sodipodi-0.dtd"
   xmlns="http://www.w3.org/2000/svg"
   xmlns:svg="http://www.w3.org/2000/svg">
  <defs
     id="defs12921" />
  <sodipodi:namedview
     id="namedview12919"
     pagecolor="#505050"
     bordercolor="#eeeeee"
     borderopacity="1"
     inkscape:pageshadow="0"
     inkscape:pageopacity="0"
     inkscape:pagecheckerboard="0"
     showgrid="false"
     inkscape:zoom="17.3125"
     inkscape:cx="13.025271"
     inkscape:cy="21.747292"
     inkscape:window-width="1918"
     inkscape:window-height="1045"
     inkscape:window-x="1920"
     inkscape:window-y="33"
     inkscape:window-maximized="1"
     inkscape:current-layer="svg12917" />
  <path
     id="path12915"
     style="color:#000000;fill:#a0a0a0;stroke-width:1.06662;-inkscape-stroke:none"
     d="M 23.998047 0 C 23.998047 0 22.822139 1.0401633 21.802734 2.4941406 L 26.195312 2.4941406 C 25.175908 1.0400622 23.998047 0 23.998047 0 z M 33.400391 24.009766 L 33.400391 30.066406 L 39.457031 30.066406 L 33.400391 24.009766 z M 16.839844 24.527344 L 12.529297 26.078125 L 0.5234375 38.085938 L 1.5664062 40.173828 L 9.90625 36.236328 L 9.90625 30.066406 L 16.839844 30.066406 L 16.839844 24.527344 z M 39.960938 30.570312 L 39.960938 37.117188 L 46.433594 40.173828 L 47.476562 38.085938 L 39.960938 30.570312 z M 16.580078 45.505859 L 14.085938 48 L 23.998047 48 L 33.910156 48 L 31.416016 45.505859 L 16.580078 45.505859 z " />
  <g
     aria-label="1"
     id="text14312"
     style="font-weight:bold;font-size:53.3333px;font-family:'Ubuntu Mono';-inkscape-font-specification:'Ubuntu Mono Bold';fill:#a0a0a0;stroke:#000000;stroke-width:10">
    <g
       id="path18501">
      <path
         style="color:#000000;-inkscape-font-specification:'Ubuntu Mono Bold';stroke:none;-inkscape-stroke:none"
         d="M 21.839993,35.06666 V 16.613338 q -1.493333,1.066666 -3.413332,1.919998 -1.919998,0.8 -3.253331,1.28 l -2.133332,-5.439997 q 1.279999,-0.48 2.773332,-1.226666 1.493332,-0.746666 2.986665,-1.653332 1.493332,-0.906667 2.826665,-1.9199992 1.333332,-1.0133328 2.293332,-2.0799988 h 4.479997 V 35.06666 h 6.559996 v 5.439997 H 14.906664 V 35.06666 Z"
         id="path18524" />
    </g>
  </g>
</svg>
