<?xml version="1.0" encoding="UTF-8" standalone="no"?>
<svg
   height="48"
   width="48"
   version="1.1"
   id="svg6644"
   sodipodi:docname="floating-6.svg"
   inkscape:version="1.1 (c4e8f9ed74, 2021-05-24)"
   xmlns:inkscape="http://www.inkscape.org/namespaces/inkscape"
   xmlns:sodipodi="http://sodipodi.sourceforge.net/DTD/sodipodi-0.dtd"
   xmlns="http://www.w3.org/2000/svg"
   xmlns:svg="http://www.w3.org/2000/svg">
  <defs
     id="defs6648" />
  <sodipodi:namedview
     id="namedview6646"
     pagecolor="#505050"
     bordercolor="#eeeeee"
     borderopacity="1"
     inkscape:pageshadow="0"
     inkscape:pageopacity="0"
     inkscape:pagecheckerboard="0"
     showgrid="false"
     inkscape:zoom="17.3125"
     inkscape:cx="13.025271"
     inkscape:cy="25.32852"
     inkscape:window-width="1918"
     inkscape:window-height="1045"
     inkscape:window-x="1920"
     inkscape:window-y="33"
     inkscape:window-maximized="1"
     inkscape:current-layer="svg6644" />
  <path
     id="path6642"
     style="color:#000000;fill:#a0a0a0;stroke-width:1.06662;-inkscape-stroke:none"
     d="M 23.998047 0 C 23.998047 0 21.512117 2.1578171 20.644531 4.6542969 C 21.465022 4.2571363 22.310606 3.9013042 23.183594 3.5976562 C 24.213416 3.2394573 25.272761 2.9511395 26.355469 2.71875 C 25.304732 1.1435516 23.998047 0 23.998047 0 z M 23.230469 9.875 L 23.121094 9.9316406 C 23.133824 9.9248786 23.149369 9.9246987 23.162109 9.9179688 C 23.186159 9.9057858 23.206359 9.887056 23.230469 9.875 z M 31.214844 22.757812 C 31.223324 22.767923 31.224022 22.780876 31.232422 22.791016 C 31.245842 22.807366 31.264014 22.815531 31.277344 22.832031 L 31.214844 22.757812 z M 8.2578125 30.349609 L 0.5234375 38.085938 L 1.5664062 40.173828 L 9.6015625 36.378906 C 8.8903243 34.533958 8.4662173 32.51328 8.2578125 30.349609 z M 39.886719 30.496094 C 39.810614 32.049083 39.512979 33.592625 39.03125 35.091797 C 38.891907 35.552759 38.732593 36.006945 38.552734 36.453125 L 46.433594 40.173828 L 47.476562 38.085938 L 39.886719 30.496094 z M 33.121094 32.763672 C 33.113154 32.799394 33.086425 32.829554 33.078125 32.865234 C 33.065045 32.914465 33.070261 32.968558 33.056641 33.017578 L 33.121094 32.763672 z M 17.484375 44.601562 L 14.085938 48 L 23.998047 48 L 33.910156 48 L 30.666016 44.753906 C 28.722039 45.596816 26.601962 45.960938 24.453125 45.960938 C 22.024686 45.960938 19.637088 45.507825 17.484375 44.601562 z " />
  <g
     aria-label="6"
     id="text7941"
     style="font-weight:bold;font-size:53.3333px;font-family:'Ubuntu Mono';-inkscape-font-specification:'Ubuntu Mono Bold';fill:#a0a0a0;stroke:#000000;stroke-width:10">
    <g
       id="path13211">
      <path
         style="color:#000000;-inkscape-font-specification:'Ubuntu Mono Bold';stroke:none;-inkscape-stroke:none"
         d="m 23.493334,24.586668 q -1.013333,0 -2.079999,0.213333 -1.066666,0.213334 -1.759999,0.586667 -0.05333,0.479999 -0.106667,0.959999 0,0.48 0,1.013333 0,1.546666 0.213334,2.986665 0.213333,1.386666 0.746666,2.506665 0.533333,1.119999 1.439999,1.813332 0.959999,0.64 2.346665,0.64 1.12,0 1.919999,-0.533333 0.8,-0.533333 1.279999,-1.333333 0.533333,-0.799999 0.746666,-1.759999 0.266667,-0.959999 0.266667,-1.866665 0,-2.506665 -1.119999,-3.839998 -1.12,-1.386666 -3.893331,-1.386666 z m 0.853332,-5.439997 q 2.879999,0 4.853331,0.853333 2.026665,0.853333 3.306665,2.293332 1.279999,1.439999 1.813332,3.359998 0.586666,1.919999 0.586666,4.053331 0,1.919999 -0.639999,3.893331 -0.586667,1.973332 -1.866666,3.626665 -1.279999,1.653332 -3.253331,2.719998 -1.973333,1.013333 -4.693331,1.013333 -5.546663,0 -8.479995,-3.413332 -2.879998,-3.466664 -2.879998,-10.773327 0,-4.799997 1.386666,-8.479994 1.439999,-3.679998 4.053331,-6.186663 2.613331,-2.5066656 6.293329,-3.7866648 3.679998,-1.2799993 8.159995,-1.2799993 l 0.373333,5.5999971 q -2.133332,0.05333 -4.159997,0.426666 -2.026666,0.373333 -3.733331,1.279999 -1.706666,0.853333 -2.986665,2.239999 -1.226666,1.386666 -1.813332,3.466664 1.013332,-0.426666 1.973332,-0.639999 Q 23.6,19.146671 24.346666,19.146671 Z"
         id="path13234" />
    </g>
  </g>
</svg>
