<?xml version="1.0" encoding="UTF-8" standalone="no"?>
<svg
   height="48"
   width="48"
   version="1.1"
   id="svg6644"
   sodipodi:docname="floating-5.svg"
   inkscape:version="1.1 (c4e8f9ed74, 2021-05-24)"
   xmlns:inkscape="http://www.inkscape.org/namespaces/inkscape"
   xmlns:sodipodi="http://sodipodi.sourceforge.net/DTD/sodipodi-0.dtd"
   xmlns="http://www.w3.org/2000/svg"
   xmlns:svg="http://www.w3.org/2000/svg">
  <defs
     id="defs6648" />
  <sodipodi:namedview
     id="namedview6646"
     pagecolor="#505050"
     bordercolor="#eeeeee"
     borderopacity="1"
     inkscape:pageshadow="0"
     inkscape:pageopacity="0"
     inkscape:pagecheckerboard="0"
     showgrid="false"
     inkscape:zoom="17.3125"
     inkscape:cx="13.025271"
     inkscape:cy="17.935018"
     inkscape:window-width="1918"
     inkscape:window-height="1045"
     inkscape:window-x="1920"
     inkscape:window-y="33"
     inkscape:window-maximized="1"
     inkscape:current-layer="svg6644" />
  <path
     id="path6642"
     style="color:#000000;fill:#a0a0a0;stroke-width:1.06662;-inkscape-stroke:none"
     d="M 23.998047 0 C 23.998047 0 23.002417 0.87656089 22.048828 2.1464844 L 25.949219 2.1464844 C 24.99563 0.87643529 23.998047 0 23.998047 0 z M 22.972656 19.763672 C 22.997946 19.767982 23.019702 19.77685 23.044922 19.78125 C 23.053362 19.782904 23.065819 19.781603 23.074219 19.783203 L 22.972656 19.763672 z M 28.472656 21.642578 C 28.501646 21.659308 28.525727 21.691874 28.554688 21.708984 C 28.5913 21.731844 28.631429 21.738329 28.667969 21.761719 L 28.472656 21.642578 z M 32.382812 25.976562 C 32.401552 26.020362 32.392026 26.069291 32.410156 26.113281 C 32.428336 26.160311 32.469028 26.190721 32.486328 26.238281 L 32.382812 25.976562 z M 10.017578 28.591797 L 0.5234375 38.085938 L 1.5664062 40.173828 L 8.4042969 36.945312 L 10.298828 29.212891 L 9.9433594 29.212891 L 10.017578 28.591797 z M 16.757812 29.294922 C 17.131532 29.46877 17.718339 29.702556 18.613281 29.939453 C 19.224328 30.101201 20.347973 30.253906 21.867188 30.253906 C 22.605581 30.253906 22.898976 30.173179 23.087891 30.130859 C 22.960543 30.071477 22.445291 29.818854 21.294922 29.623047 L 21.244141 29.613281 L 21.193359 29.603516 C 20.260189 29.424823 18.538528 29.346002 16.757812 29.294922 z M 39.976562 30.585938 C 39.931699 32.560879 39.557486 34.513671 38.820312 36.332031 L 38.810547 36.353516 L 38.802734 36.376953 C 38.780206 36.431021 38.753708 36.483355 38.730469 36.537109 L 46.433594 40.173828 L 47.476562 38.085938 L 39.976562 30.585938 z M 26.65625 39.548828 C 26.65047 39.550885 26.644472 39.548781 26.638672 39.550781 C 26.623472 39.555901 26.60896 39.565213 26.59375 39.570312 L 26.65625 39.548828 z M 30.306641 44.394531 C 29.935264 44.541469 29.560187 44.681928 29.177734 44.806641 C 26.922847 45.541929 24.498642 45.853516 21.919922 45.853516 C 20.858257 45.853516 19.787751 45.787421 18.710938 45.658203 C 18.039713 45.577656 17.384871 45.468999 16.736328 45.349609 L 14.085938 48 L 23.998047 48 L 33.910156 48 L 30.306641 44.394531 z " />
  <g
     aria-label="5"
     id="text7941"
     style="font-weight:bold;font-size:53.3333px;font-family:'Ubuntu Mono';-inkscape-font-specification:'Ubuntu Mono Bold';fill:#a0a0a0;stroke:#000000;stroke-width:10">
    <g
       id="path11578">
      <path
         style="color:#000000;-inkscape-font-specification:'Ubuntu Mono Bold';stroke:none;-inkscape-stroke:none"
         d="m 28.266664,30.453331 q 0,-1.386666 -0.48,-2.506665 -0.426666,-1.173332 -1.813332,-1.973332 -1.333333,-0.853333 -3.839998,-1.279999 -2.506665,-0.48 -6.559996,-0.48 0.533333,-4.479997 0.853333,-8.746661 0.32,-4.319998 0.48,-8.3199954 H 33.759994 V 12.586675 H 22.400001 q -0.106667,1.706666 -0.266667,3.573332 -0.16,1.866665 -0.266666,3.039998 6.613329,0.426666 9.866661,3.199998 3.253331,2.773331 3.253331,7.786662 0,2.293332 -0.8,4.266664 -0.799999,1.919999 -2.453331,3.359998 -1.653333,1.439999 -4.106665,2.239999 -2.453332,0.799999 -5.706663,0.799999 -1.279999,0 -2.613332,-0.16 -1.333332,-0.16 -2.559998,-0.426666 -1.226666,-0.213333 -2.239999,-0.533333 -0.959999,-0.32 -1.493332,-0.586667 l 1.333332,-5.439996 q 1.173333,0.586666 2.986665,1.066666 1.813332,0.479999 4.533331,0.479999 1.919999,0 3.146665,-0.426666 1.279999,-0.426666 1.973332,-1.066666 0.746666,-0.693333 1.013332,-1.546666 0.266667,-0.853333 0.266667,-1.759999 z"
         id="path11601" />
    </g>
  </g>
</svg>
