<?xml version="1.0" encoding="UTF-8" standalone="no"?>
<svg
   height="48"
   width="48"
   version="1.1"
   id="svg8672"
   sodipodi:docname="map-2.svg"
   inkscape:version="1.1 (c4e8f9ed74, 2021-05-24)"
   xmlns:inkscape="http://www.inkscape.org/namespaces/inkscape"
   xmlns:sodipodi="http://sodipodi.sourceforge.net/DTD/sodipodi-0.dtd"
   xmlns="http://www.w3.org/2000/svg"
   xmlns:svg="http://www.w3.org/2000/svg">
  <defs
     id="defs8676" />
  <sodipodi:namedview
     id="namedview8674"
     pagecolor="#505050"
     bordercolor="#eeeeee"
     borderopacity="1"
     inkscape:pageshadow="0"
     inkscape:pageopacity="0"
     inkscape:pagecheckerboard="0"
     showgrid="false"
     inkscape:zoom="17.3125"
     inkscape:cx="13.025271"
     inkscape:cy="23.768953"
     inkscape:window-width="1918"
     inkscape:window-height="1045"
     inkscape:window-x="1920"
     inkscape:window-y="33"
     inkscape:window-maximized="1"
     inkscape:current-layer="svg8672" />
  <path
     id="path8670"
     style="color:#000000;fill:#a0a0a0;stroke-width:1.0667;-inkscape-stroke:none"
     d="M 0.0625 0.015625 L 0.0625 48.017578 L 48.0625 48.017578 L 48.0625 0.015625 L 0.0625 0.015625 z M 23.333984 2.1191406 C 25.167549 2.1191406 26.98835 2.3912046 28.726562 2.9375 C 29.293817 3.11578 29.848227 3.330247 30.390625 3.5722656 L 44.501953 3.5722656 L 44.501953 21.017578 L 37.939453 21.017578 C 37.859125 21.254771 37.774604 21.490248 37.681641 21.722656 L 37.671875 21.751953 L 37.660156 21.779297 C 37.075633 23.191895 36.313091 24.537455 35.402344 25.8125 C 34.543961 27.014236 33.585822 28.161292 32.537109 29.251953 C 32.14208 29.662784 31.728444 30.040967 31.326172 30.439453 L 31.740234 30.439453 L 35.162109 27.017578 L 44.501953 27.017578 L 44.501953 44.458984 L 40.173828 44.458984 L 40.173828 45.880859 L 9.90625 45.880859 L 9.4804688 44.458984 L 3.6210938 44.458984 L 3.6210938 27.017578 L 12.537109 27.017578 C 12.7174 26.773538 12.892502 26.525974 13.082031 26.289062 L 13.087891 26.283203 L 13.09375 26.277344 C 13.819865 25.37596 14.625479 24.591932 15.408203 23.773438 L 13.216797 20.683594 L 12.882812 21.017578 L 3.6210938 21.017578 L 3.6210938 3.5722656 L 15.8125 3.5722656 C 15.854603 3.5556998 15.895259 3.5357777 15.9375 3.5195312 L 15.953125 3.5136719 L 15.96875 3.5078125 C 18.358554 2.6059996 20.844073 2.1191406 23.333984 2.1191406 z M 30.111328 22.712891 C 30.097438 22.732951 30.074527 22.749501 30.060547 22.769531 C 30.050577 22.783311 30.047129 22.802696 30.037109 22.816406 L 30.111328 22.712891 z M 19.158203 28.505859 L 19.066406 28.613281 C 19.084136 28.592001 19.105247 28.573954 19.123047 28.552734 C 19.136047 28.537924 19.145163 28.520639 19.158203 28.505859 z " />
  <g
     aria-label="2"
     id="text10123"
     style="font-weight:bold;font-size:53.3333px;font-family:'Ubuntu Mono';-inkscape-font-specification:'Ubuntu Mono Bold';fill:#a0a0a0;stroke:#000000;stroke-width:10">
    <g
       id="path37278">
      <path
         style="color:#000000;-inkscape-font-specification:'Ubuntu Mono Bold';stroke:none;-inkscape-stroke:none"
         d="m 33.679994,16.560004 q 0,1.706666 -0.639999,3.306665 -0.64,1.546666 -1.706666,3.039998 -1.066666,1.493332 -2.399999,2.879998 -1.333332,1.386666 -2.719998,2.666665 -0.693333,0.64 -1.599999,1.546666 -0.906666,0.853333 -1.706666,1.813332 -0.799999,0.906666 -1.386665,1.866666 -0.533333,0.959999 -0.533333,1.759999 H 35.173327 V 40.87999 H 13.626673 q -0.16,-0.533333 -0.16,-1.333333 0.05333,-0.799999 0.05333,-1.119999 0,-2.666665 0.96,-4.906664 1.013332,-2.239999 2.506665,-4.106664 1.546666,-1.919999 3.253331,-3.519998 1.759999,-1.653332 3.253332,-3.146665 1.546665,-1.493332 2.506665,-2.879998 1.013333,-1.386666 1.013333,-2.826665 0,-2.026666 -1.226666,-3.093332 -1.226666,-1.119999 -3.093332,-1.119999 -1.546666,0 -3.253331,0.746666 -1.706666,0.746666 -3.359998,2.506665 L 12.826673,11.49334 q 2.133332,-2.2399982 4.906664,-3.3066642 2.826665,-1.0666661 5.599997,-1.0666661 2.026665,0 3.893331,0.5866664 1.866665,0.5866663 3.306664,1.7599989 1.44,1.173333 2.293332,2.986665 0.853333,1.759999 0.853333,4.106664 z"
         id="path37301" />
    </g>
  </g>
</svg>
