<?xml version="1.0" encoding="UTF-8" standalone="no"?>
<svg
   height="48"
   width="48"
   version="1.1"
   id="svg8672"
   sodipodi:docname="map-4.svg"
   inkscape:version="1.1 (c4e8f9ed74, 2021-05-24)"
   xmlns:inkscape="http://www.inkscape.org/namespaces/inkscape"
   xmlns:sodipodi="http://sodipodi.sourceforge.net/DTD/sodipodi-0.dtd"
   xmlns="http://www.w3.org/2000/svg"
   xmlns:svg="http://www.w3.org/2000/svg">
  <defs
     id="defs8676" />
  <sodipodi:namedview
     id="namedview8674"
     pagecolor="#505050"
     bordercolor="#eeeeee"
     borderopacity="1"
     inkscape:pageshadow="0"
     inkscape:pageopacity="0"
     inkscape:pagecheckerboard="0"
     showgrid="false"
     inkscape:zoom="17.3125"
     inkscape:cx="13.025271"
     inkscape:cy="23.768953"
     inkscape:window-width="1918"
     inkscape:window-height="1045"
     inkscape:window-x="1920"
     inkscape:window-y="33"
     inkscape:window-maximized="1"
     inkscape:current-layer="svg8672" />
  <path
     id="path8670"
     style="color:#000000;fill:#a0a0a0;stroke-width:1.0667;-inkscape-stroke:none"
     d="M 0.0625 0.015625 L 0.0625 48.017578 L 48.0625 48.017578 L 48.0625 0.015625 L 0.0625 0.015625 z M 30.8125 1.2050781 L 30.8125 2.4941406 L 32.373047 2.4941406 L 37.373047 2.4941406 L 37.373047 3.5722656 L 44.501953 3.5722656 L 44.501953 21.017578 L 37.373047 21.017578 L 37.373047 22.333984 L 40.947266 22.333984 L 40.947266 27.017578 L 44.501953 27.017578 L 44.501953 44.458984 L 37.373047 44.458984 L 37.373047 45.505859 L 20.8125 45.505859 L 20.8125 44.458984 L 3.6210938 44.458984 L 3.6210938 27.017578 L 7.0527344 27.017578 L 7.0527344 26.767578 L 7.5585938 25.730469 C 8.2696442 24.270945 9.1416763 22.704804 10.162109 21.017578 L 3.6210938 21.017578 L 3.6210938 3.5722656 L 21.0625 3.5722656 L 21.0625 5.9824219 C 21.694082 5.2798029 22.328753 4.598981 22.970703 3.9570312 L 24.435547 2.4941406 L 29.802734 2.4941406 L 30.8125 1.2050781 z " />
  <g
     aria-label="4"
     id="text10123"
     style="font-weight:bold;font-size:53.3333px;font-family:'Ubuntu Mono';-inkscape-font-specification:'Ubuntu Mono Bold';fill:#a0a0a0;stroke:#000000;stroke-width:10">
    <g
       id="path69617">
      <path
         style="color:#000000;-inkscape-font-specification:'Ubuntu Mono Bold';stroke:none;-inkscape-stroke:none"
         d="m 25.813332,15.706671 q -0.959999,1.226666 -1.973332,2.613332 -1.013333,1.386666 -2.026665,2.933332 -0.96,1.493332 -1.866666,3.039998 -0.906666,1.546666 -1.599999,3.039998 h 7.466662 z m 6.559996,-8.213328 v 19.839988 h 3.573332 v 5.386664 h -3.573332 v 7.786662 H 25.813332 V 32.719995 H 12.05334 v -4.799998 q 1.013333,-2.079998 2.613332,-4.69333 1.599999,-2.666665 3.519998,-5.439997 1.919999,-2.773331 4.053331,-5.439997 2.133332,-2.7199979 4.266664,-4.85333 z"
         id="path69640" />
    </g>
  </g>
</svg>
