<?xml version="1.0" encoding="UTF-8" standalone="no"?>
<svg
   height="48"
   width="48"
   version="1.1"
   id="svg8672"
   sodipodi:docname="map-3.svg"
   inkscape:version="1.1 (c4e8f9ed74, 2021-05-24)"
   xmlns:inkscape="http://www.inkscape.org/namespaces/inkscape"
   xmlns:sodipodi="http://sodipodi.sourceforge.net/DTD/sodipodi-0.dtd"
   xmlns="http://www.w3.org/2000/svg"
   xmlns:svg="http://www.w3.org/2000/svg">
  <defs
     id="defs8676" />
  <sodipodi:namedview
     id="namedview8674"
     pagecolor="#505050"
     bordercolor="#eeeeee"
     borderopacity="1"
     inkscape:pageshadow="0"
     inkscape:pageopacity="0"
     inkscape:pagecheckerboard="0"
     showgrid="false"
     inkscape:zoom="17.3125"
     inkscape:cx="23.971119"
     inkscape:cy="24.115523"
     inkscape:window-width="1918"
     inkscape:window-height="1045"
     inkscape:window-x="1920"
     inkscape:window-y="33"
     inkscape:window-maximized="1"
     inkscape:current-layer="svg8672" />
  <path
     id="path8670"
     style="color:#000000;fill:#a0a0a0;stroke-width:1.0667;-inkscape-stroke:none"
     d="M 0.0625 0.015625 L 0.0625 48.017578 L 48.0625 48.017578 L 48.0625 0.015625 L 0.0625 0.015625 z M 22.826172 1.7734375 C 25.086696 1.7734375 27.222368 2.0474685 29.230469 2.7324219 C 29.923387 2.9645722 30.599824 3.2454344 31.251953 3.5722656 L 44.501953 3.5722656 L 44.501953 21.017578 L 37.517578 21.017578 C 37.333885 21.416956 37.134548 21.808286 36.914062 22.185547 C 37.131974 22.457142 37.426329 22.65965 37.621094 22.949219 C 38.47096 24.185538 39.071672 25.571339 39.451172 27.017578 L 44.501953 27.017578 L 44.501953 44.458984 L 31.451172 44.458984 C 30.828176 44.7461 30.186653 45.002886 29.527344 45.222656 L 29.480469 45.240234 L 29.431641 45.253906 C 27.20969 45.94518 24.821019 46.226562 22.240234 46.226562 C 21.146088 46.226563 20.037227 46.130822 18.908203 45.958984 C 17.92368 45.837455 16.950989 45.681765 15.994141 45.482422 L 15.972656 45.476562 L 15.951172 45.472656 C 15.021684 45.270594 14.133448 45.044137 13.283203 44.789062 C 12.919429 44.67993 12.586138 44.57203 12.257812 44.458984 L 3.6210938 44.458984 L 3.6210938 27.017578 L 10.820312 27.017578 L 10.837891 26.943359 L 11.007812 27.017578 L 12.902344 27.017578 L 13.880859 27.996094 L 13.880859 21.556641 L 13.376953 20.523438 L 12.882812 21.017578 L 3.6210938 21.017578 L 3.6210938 3.5722656 L 14.589844 3.5722656 C 14.894183 3.4387378 15.198205 3.3047721 15.517578 3.1738281 C 17.796656 2.215185 20.277242 1.7734375 22.826172 1.7734375 z M 30.740234 20.865234 C 30.716654 20.904529 30.678597 20.935619 30.654297 20.974609 C 30.635367 21.003889 30.632691 21.037296 30.613281 21.066406 L 30.740234 20.865234 z " />
  <g
     aria-label="3"
     id="text10123"
     style="font-weight:bold;font-size:53.3333px;font-family:'Ubuntu Mono';-inkscape-font-specification:'Ubuntu Mono Bold';fill:#a0a0a0;stroke:#000000;stroke-width:10">
    <g
       id="path56469">
      <path
         style="color:#000000;-inkscape-font-specification:'Ubuntu Mono Bold';stroke:none;-inkscape-stroke:none"
         d="m 22.240001,41.226658 q -1.226666,0 -2.613332,-0.213333 -1.333332,-0.16 -2.613332,-0.426667 -1.226666,-0.266666 -2.293332,-0.586666 -1.066666,-0.32 -1.653332,-0.586666 l 1.279999,-5.49333 q 1.226666,0.533333 3.146665,1.119999 1.973332,0.586666 4.693331,0.586666 3.359998,0 4.69333,-1.439999 1.386666,-1.439999 1.386666,-3.573331 0,-2.613332 -2.079999,-3.626664 -2.079998,-1.066666 -5.279997,-1.066666 h -2.026665 v -5.439997 h 2.453332 q 1.013333,0 2.026665,-0.213333 1.013333,-0.213334 1.813333,-0.693333 0.799999,-0.48 1.279999,-1.28 0.533333,-0.799999 0.533333,-2.026665 0,-1.813332 -1.12,-2.826665 -1.066666,-1.066666 -2.986664,-1.066666 -1.866666,0 -3.733332,0.64 -1.813332,0.586666 -3.146664,1.493332 L 13.653339,9.7066769 q 1.44,-0.9599994 3.786665,-1.9199989 2.399998,-1.0133327 5.386663,-1.0133327 2.773332,0 4.799997,0.6933329 2.079999,0.693333 3.413332,1.9733322 1.333332,1.2266656 1.973332,2.9333316 0.64,1.706666 0.64,3.679998 0,1.973332 -1.12,3.786664 -1.119999,1.813332 -2.986665,2.773332 2.559999,1.066666 3.946665,3.146665 1.439999,2.079998 1.439999,4.959997 0,2.293332 -0.746666,4.213331 -0.746667,1.919998 -2.293332,3.359998 -1.546666,1.386665 -3.946665,2.186665 -2.399998,0.746666 -5.706663,0.746666 z"
         id="path56492" />
    </g>
  </g>
</svg>
