<?xml version="1.0" encoding="UTF-8" standalone="no"?>
<svg
   height="48"
   width="48"
   version="1.1"
   id="svg8672"
   sodipodi:docname="map-1.svg"
   inkscape:version="1.1 (c4e8f9ed74, 2021-05-24)"
   xmlns:inkscape="http://www.inkscape.org/namespaces/inkscape"
   xmlns:sodipodi="http://sodipodi.sourceforge.net/DTD/sodipodi-0.dtd"
   xmlns="http://www.w3.org/2000/svg"
   xmlns:svg="http://www.w3.org/2000/svg">
  <defs
     id="defs8676" />
  <sodipodi:namedview
     id="namedview8674"
     pagecolor="#505050"
     bordercolor="#eeeeee"
     borderopacity="1"
     inkscape:pageshadow="0"
     inkscape:pageopacity="0"
     inkscape:pagecheckerboard="0"
     showgrid="false"
     inkscape:zoom="17.3125"
     inkscape:cx="13.025271"
     inkscape:cy="14.527076"
     inkscape:window-width="1918"
     inkscape:window-height="1045"
     inkscape:window-x="1920"
     inkscape:window-y="33"
     inkscape:window-maximized="1"
     inkscape:current-layer="svg8672" />
  <path
     id="path8670"
     style="color:#000000;fill:#a0a0a0;stroke-width:1.0667;-inkscape-stroke:none"
     d="M 0.0625 0.015625 L 0.0625 48.017578 L 48.0625 48.017578 L 48.0625 0.015625 L 0.0625 0.015625 z M 21.693359 2.4941406 L 33.400391 2.4941406 L 33.400391 3.5722656 L 44.501953 3.5722656 L 44.501953 21.017578 L 35.181641 21.017578 L 33.400391 19.236328 L 33.400391 28.779297 L 35.162109 27.017578 L 44.501953 27.017578 L 44.501953 44.458984 L 39.960938 44.458984 L 39.960938 45.505859 L 9.90625 45.505859 L 9.90625 44.458984 L 3.6210938 44.458984 L 3.6210938 27.017578 L 12.902344 27.017578 L 15.951172 30.066406 L 16.839844 30.066406 L 16.839844 24.527344 L 12.292969 26.164062 L 10.273438 21.017578 L 3.6210938 21.017578 L 3.6210938 3.5722656 L 20.722656 3.5722656 L 21.693359 2.4941406 z " />
  <g
     aria-label="1"
     id="text10123"
     style="font-weight:bold;font-size:53.3333px;font-family:'Ubuntu Mono';-inkscape-font-specification:'Ubuntu Mono Bold';fill:#a0a0a0;stroke:#000000;stroke-width:10">
    <g
       id="path12715">
      <path
         style="color:#000000;-inkscape-font-specification:'Ubuntu Mono Bold';stroke:none;-inkscape-stroke:none"
         d="M 21.840001,35.06666 V 16.613338 q -1.493332,1.066666 -3.413331,1.919998 -1.919999,0.8 -3.253331,1.28 l -2.133332,-5.439997 q 1.279999,-0.48 2.773331,-1.226666 1.493333,-0.746666 2.986665,-1.653332 1.493333,-0.906667 2.826665,-1.9199992 Q 22.960001,8.560009 23.92,7.493343 h 4.479997 V 35.06666 h 6.559997 v 5.439997 H 14.906672 V 35.06666 Z"
         id="path12738" />
    </g>
  </g>
</svg>
