<?xml version="1.0" encoding="UTF-8" standalone="no"?>
<svg
   height="48"
   width="48"
   version="1.1"
   id="svg39587"
   sodipodi:docname="max-2.svg"
   inkscape:version="1.1 (c4e8f9ed74, 2021-05-24)"
   xmlns:inkscape="http://www.inkscape.org/namespaces/inkscape"
   xmlns:sodipodi="http://sodipodi.sourceforge.net/DTD/sodipodi-0.dtd"
   xmlns="http://www.w3.org/2000/svg"
   xmlns:svg="http://www.w3.org/2000/svg">
  <defs
     id="defs39591" />
  <sodipodi:namedview
     id="namedview39589"
     pagecolor="#505050"
     bordercolor="#eeeeee"
     borderopacity="1"
     inkscape:pageshadow="0"
     inkscape:pageopacity="0"
     inkscape:pagecheckerboard="0"
     showgrid="false"
     inkscape:zoom="17.3125"
     inkscape:cx="13.025271"
     inkscape:cy="21.227437"
     inkscape:window-width="1918"
     inkscape:window-height="1045"
     inkscape:window-x="1920"
     inkscape:window-y="33"
     inkscape:window-maximized="1"
     inkscape:current-layer="svg39587" />
  <g
     fill="#a0a0a0"
     transform="matrix(1.0666193 0 0 1.0666667 -583.93887 -124.2592)"
     id="g39585">
    <path
       id="path39577"
       style="color:#000000;fill:#a0a0a0;stroke-width:1.06664;-inkscape-stroke:none"
       d="M 0.890625 0 C 0.40104674 0 0.001953125 0.40013853 0.001953125 0.88867188 L 0.001953125 17.777344 C 0.001953125 18.755477 0.56752973 18.988075 1.2597656 18.296875 L 6.6367188 12.919922 L 10.324219 16.607422 L 6.3652344 11.027344 L 9.2050781 8.0449219 C 11.100188 6.0550564 13.39503 4.4974066 15.9375 3.5195312 L 15.953125 3.5136719 L 15.96875 3.5078125 C 16.009518 3.4924285 16.050974 3.4799859 16.091797 3.4648438 L 18.300781 1.2558594 C 18.989817 0.565726 18.75632 0 17.779297 0 L 0.890625 0 z M 30.222656 0 C 29.245633 0 29.008936 0.565726 29.701172 1.2558594 L 35.082031 6.6347656 L 34.947266 6.7695312 C 35.921124 7.812551 36.725871 9.0123033 37.333984 10.296875 C 38.140347 11.969269 38.55075 13.786835 38.652344 15.632812 L 41.365234 12.919922 L 46.744141 18.296875 C 47.43531 18.988075 48 18.75441 48 17.777344 L 48 0.88867188 L 47.998047 0.88867188 C 47.998047 0.39907186 47.600906 -7.4014868e-17 47.111328 0 L 30.222656 0 z M 33.955078 27.671875 C 33.502243 28.210469 33.031097 28.738206 32.537109 29.251953 C 32.14208 29.662784 31.728444 30.040967 31.326172 30.439453 L 36.722656 30.439453 L 33.955078 27.671875 z M 0.55664062 29.306641 C 0.22188937 29.292222 0 29.61199 0 30.222656 L 0 47.111328 C 0 47.600928 0.39909362 48 0.88867188 48 L 17.779297 48 C 18.75632 48 18.990884 47.434274 18.300781 46.744141 L 17.4375 45.880859 L 9.90625 45.880859 L 8.8378906 42.316406 C 8.5335079 41.301796 8.4667969 40.413541 8.4667969 39.546875 L 8.4667969 39.380859 L 8.4785156 39.214844 C 8.5111216 38.725659 8.5195312 38.361351 8.5195312 38.425781 C 8.5195312 36.216499 8.9067124 34.038985 9.7011719 32.013672 L 6.6347656 35.080078 L 1.2578125 29.703125 C 0.99862401 29.443925 0.75749138 29.315292 0.55664062 29.306641 z M 47.443359 29.306641 C 47.242883 29.315423 47.001776 29.443925 46.742188 29.703125 L 41.363281 35.080078 L 40.173828 33.890625 L 40.173828 45.880859 L 30.564453 45.880859 L 29.701172 46.744141 C 29.010003 47.434274 29.24368 48 30.220703 48 L 47.111328 48 C 47.600906 48 47.998047 47.599861 47.998047 47.111328 L 47.998047 30.222656 C 47.998047 29.611323 47.777486 29.292003 47.443359 29.306641 z "
       transform="matrix(0.93754163,0,0,0.93749997,547.467,116.493)" />
  </g>
  <g
     aria-label="2"
     id="text41453"
     style="font-weight:bold;font-size:53.3333px;font-family:'Ubuntu Mono';-inkscape-font-specification:'Ubuntu Mono Bold';fill:#a0a0a0;stroke:#000000;stroke-width:10">
    <g
       id="path47124">
      <path
         style="color:#000000;-inkscape-font-specification:'Ubuntu Mono Bold';stroke:none;-inkscape-stroke:none"
         d="m 33.679994,16.560004 q 0,1.706666 -0.639999,3.306665 -0.64,1.546666 -1.706666,3.039998 -1.066666,1.493332 -2.399999,2.879998 -1.333332,1.386666 -2.719998,2.666665 -0.693333,0.64 -1.599999,1.546666 -0.906666,0.853333 -1.706666,1.813332 -0.799999,0.906666 -1.386665,1.866666 -0.533333,0.959999 -0.533333,1.759999 H 35.173327 V 40.87999 H 13.626673 q -0.16,-0.533333 -0.16,-1.333333 0.05333,-0.799999 0.05333,-1.119999 0,-2.666665 0.96,-4.906664 1.013332,-2.239999 2.506665,-4.106664 1.546666,-1.919999 3.253331,-3.519998 1.759999,-1.653332 3.253332,-3.146665 1.546665,-1.493332 2.506665,-2.879998 1.013333,-1.386666 1.013333,-2.826665 0,-2.026666 -1.226666,-3.093332 -1.226666,-1.119999 -3.093332,-1.119999 -1.546666,0 -3.253331,0.746666 -1.706666,0.746666 -3.359998,2.506665 L 12.826673,11.49334 q 2.133332,-2.2399982 4.906664,-3.3066642 2.826665,-1.0666661 5.599997,-1.0666661 2.026665,0 3.893331,0.5866664 1.866665,0.5866663 3.306664,1.7599989 1.44,1.173333 2.293332,2.986665 0.853333,1.759999 0.853333,4.106664 z"
         id="path47147" />
    </g>
  </g>
</svg>
