<?xml version="1.0" encoding="UTF-8" standalone="no"?>
<svg
   height="48"
   width="48"
   version="1.1"
   id="svg39587"
   sodipodi:docname="max-5.svg"
   inkscape:version="1.1 (c4e8f9ed74, 2021-05-24)"
   xmlns:inkscape="http://www.inkscape.org/namespaces/inkscape"
   xmlns:sodipodi="http://sodipodi.sourceforge.net/DTD/sodipodi-0.dtd"
   xmlns="http://www.w3.org/2000/svg"
   xmlns:svg="http://www.w3.org/2000/svg">
  <defs
     id="defs39591" />
  <sodipodi:namedview
     id="namedview39589"
     pagecolor="#505050"
     bordercolor="#eeeeee"
     borderopacity="1"
     inkscape:pageshadow="0"
     inkscape:pageopacity="0"
     inkscape:pagecheckerboard="0"
     showgrid="false"
     inkscape:zoom="17.3125"
     inkscape:cx="13.025271"
     inkscape:cy="22.787004"
     inkscape:window-width="1918"
     inkscape:window-height="1045"
     inkscape:window-x="1920"
     inkscape:window-y="33"
     inkscape:window-maximized="1"
     inkscape:current-layer="svg39587" />
  <g
     fill="#a0a0a0"
     transform="matrix(1.0666193 0 0 1.0666667 -583.93887 -124.2592)"
     id="g39585">
    <path
       id="path39577"
       style="color:#000000;fill:#a0a0a0;stroke-width:1.06664;-inkscape-stroke:none"
       d="M 0.890625 0 C 0.40104674 0 0.001953125 0.40013853 0.001953125 0.88867188 L 0.001953125 17.777344 C 0.001953125 18.755477 0.56752973 18.988075 1.2597656 18.296875 L 6.6367188 12.919922 L 11.230469 17.513672 C 11.301944 16.704625 11.381677 15.888181 11.441406 15.091797 L 11.439453 15.097656 C 11.648923 12.269814 11.805937 9.5527415 11.910156 6.9472656 L 12.103516 2.1464844 L 17.410156 2.1464844 L 18.300781 1.2558594 C 18.989817 0.565726 18.75632 0 17.779297 0 L 0.890625 0 z M 30.222656 0 C 29.245633 0 29.008936 0.565726 29.701172 1.2558594 L 30.591797 2.1464844 L 38.759766 2.1464844 L 38.759766 15.525391 L 41.365234 12.919922 L 46.744141 18.296875 C 47.43531 18.988075 48 18.75441 48 17.777344 L 48 0.88867188 L 47.998047 0.88867188 C 47.998047 0.39907186 47.600906 -7.4014868e-17 47.111328 0 L 30.222656 0 z M 33.498047 17.585938 C 33.9944 17.916721 34.518396 18.205232 34.976562 18.595703 C 35.105054 18.705237 35.225949 18.821432 35.349609 18.935547 L 36.699219 17.585938 L 33.498047 17.585938 z M 32.431641 26.148438 C 32.451196 26.17743 32.473898 26.204108 32.486328 26.238281 L 32.462891 26.179688 L 32.431641 26.148438 z M 16.757812 29.294922 C 17.131532 29.46877 17.718339 29.702556 18.613281 29.939453 C 18.99535 30.040589 19.599244 30.134413 20.353516 30.193359 L 19.583984 29.423828 C 18.743985 29.363633 17.769877 29.323953 16.757812 29.294922 z M 0.55664062 29.306641 C 0.22188937 29.292222 0 29.61199 0 30.222656 L 0 47.111328 C 0 47.600928 0.39909362 48 0.88867188 48 L 17.779297 48 C 18.75632 48 18.990884 47.434274 18.300781 46.744141 L 16.947266 45.390625 C 16.56246 45.322386 16.178205 45.252384 15.800781 45.171875 C 14.830091 44.99955 13.896982 44.784594 13.001953 44.501953 L 12.962891 44.490234 L 12.925781 44.476562 C 12.154021 44.21931 11.49067 43.975804 10.777344 43.619141 L 7.2070312 41.833984 L 9.5839844 32.130859 L 6.6347656 35.080078 L 1.2578125 29.703125 C 0.99862401 29.443925 0.75749138 29.315292 0.55664062 29.306641 z M 47.443359 29.306641 C 47.242883 29.315423 47.001776 29.443925 46.742188 29.703125 L 41.363281 35.080078 L 39.683594 33.400391 C 39.49046 34.403631 39.203926 35.385786 38.820312 36.332031 L 38.810547 36.353516 L 38.802734 36.376953 C 37.969752 38.376113 36.648548 40.163462 35.017578 41.583984 C 34.759306 41.808931 34.491501 42.02072 34.21875 42.226562 L 29.701172 46.744141 C 29.010003 47.434274 29.24368 48 30.220703 48 L 47.111328 48 C 47.600906 48 47.998047 47.599861 47.998047 47.111328 L 47.998047 30.222656 C 47.998047 29.611323 47.777486 29.292003 47.443359 29.306641 z "
       transform="matrix(0.93754163,0,0,0.93749997,547.467,116.493)" />
  </g>
  <g
     aria-label="5"
     id="text41453"
     style="font-weight:bold;font-size:53.3333px;font-family:'Ubuntu Mono';-inkscape-font-specification:'Ubuntu Mono Bold';fill:#a0a0a0;stroke:#000000;stroke-width:10">
    <g
       id="path83832">
      <path
         style="color:#000000;-inkscape-font-specification:'Ubuntu Mono Bold';stroke:none;-inkscape-stroke:none"
         d="m 28.266664,30.453331 q 0,-1.386666 -0.48,-2.506665 -0.426666,-1.173332 -1.813332,-1.973332 -1.333333,-0.853333 -3.839998,-1.279999 -2.506665,-0.48 -6.559996,-0.48 0.533333,-4.479997 0.853333,-8.746661 0.32,-4.319998 0.48,-8.3199954 H 33.759994 V 12.586675 H 22.400001 q -0.106667,1.706666 -0.266667,3.573332 -0.16,1.866665 -0.266666,3.039998 6.613329,0.426666 9.866661,3.199998 3.253331,2.773331 3.253331,7.786662 0,2.293332 -0.8,4.266664 -0.799999,1.919999 -2.453331,3.359998 -1.653333,1.439999 -4.106665,2.239999 -2.453332,0.799999 -5.706663,0.799999 -1.279999,0 -2.613332,-0.16 -1.333332,-0.16 -2.559998,-0.426666 -1.226666,-0.213333 -2.239999,-0.533333 -0.959999,-0.32 -1.493332,-0.586667 l 1.333332,-5.439996 q 1.173333,0.586666 2.986665,1.066666 1.813332,0.479999 4.533331,0.479999 1.919999,0 3.146665,-0.426666 1.279999,-0.426666 1.973332,-1.066666 0.746666,-0.693333 1.013332,-1.546666 0.266667,-0.853333 0.266667,-1.759999 z"
         id="path83855" />
    </g>
  </g>
</svg>
