<?xml version="1.0" encoding="UTF-8" standalone="no"?>
<svg
   height="48"
   width="48"
   version="1.1"
   id="svg39587"
   sodipodi:docname="max-3.svg"
   inkscape:version="1.1 (c4e8f9ed74, 2021-05-24)"
   xmlns:inkscape="http://www.inkscape.org/namespaces/inkscape"
   xmlns:sodipodi="http://sodipodi.sourceforge.net/DTD/sodipodi-0.dtd"
   xmlns="http://www.w3.org/2000/svg"
   xmlns:svg="http://www.w3.org/2000/svg">
  <defs
     id="defs39591" />
  <sodipodi:namedview
     id="namedview39589"
     pagecolor="#505050"
     bordercolor="#eeeeee"
     borderopacity="1"
     inkscape:pageshadow="0"
     inkscape:pageopacity="0"
     inkscape:pagecheckerboard="0"
     showgrid="false"
     inkscape:zoom="17.3125"
     inkscape:cx="23.971119"
     inkscape:cy="24.115523"
     inkscape:window-width="1918"
     inkscape:window-height="1045"
     inkscape:window-x="1920"
     inkscape:window-y="33"
     inkscape:window-maximized="1"
     inkscape:current-layer="svg39587" />
  <g
     fill="#a0a0a0"
     transform="matrix(1.0666193 0 0 1.0666667 -583.93887 -124.2592)"
     id="g39585">
    <path
       id="path39577"
       style="color:#000000;fill:#a0a0a0;stroke-width:1.06664;-inkscape-stroke:none"
       d="M 0.890625 0 C 0.40104674 0 0.001953125 0.40013853 0.001953125 0.88867188 L 0.001953125 17.777344 C 0.001953125 18.755477 0.56752973 18.988075 1.2597656 18.296875 L 6.6367188 12.919922 L 12.548828 18.832031 L 7.2402344 7.9726562 L 10.878906 5.546875 C 12.233262 4.6439717 13.758551 3.8950344 15.517578 3.1738281 C 15.964846 2.9856948 16.421029 2.8227141 16.882812 2.6738281 L 18.300781 1.2558594 C 18.989817 0.565726 18.75632 0 17.779297 0 L 0.890625 0 z M 30.222656 0 C 29.245633 0 29.008936 0.565726 29.701172 1.2558594 L 33.207031 4.7597656 C 33.647147 5.0812646 34.069086 5.4295532 34.466797 5.8085938 C 35.890314 7.1320314 37.013556 8.7991485 37.695312 10.617188 C 38.296119 12.219334 38.603637 13.922356 38.646484 15.638672 L 41.365234 12.919922 L 46.744141 18.296875 C 47.43531 18.988075 48 18.75441 48 17.777344 L 48 0.88867188 L 47.998047 0.88867188 C 47.998047 0.39907186 47.600906 -7.4014868e-17 47.111328 0 L 30.222656 0 z M 30.740234 20.865234 C 30.735994 20.8723 30.729621 20.878137 30.724609 20.884766 L 30.726562 20.886719 L 30.740234 20.865234 z M 13.880859 27.833984 L 13.580078 28.134766 L 13.880859 28.265625 L 13.880859 27.833984 z M 0.55664062 29.306641 C 0.22188937 29.292222 0 29.61199 0 30.222656 L 0 47.111328 C 0 47.600928 0.39909362 48 0.88867188 48 L 17.779297 48 C 18.75632 48 18.990884 47.434274 18.300781 46.744141 L 17.275391 45.71875 C 16.84602 45.646799 16.417652 45.570653 15.994141 45.482422 L 15.972656 45.476562 L 15.951172 45.472656 C 15.021684 45.270594 14.133448 45.044137 13.283203 44.789062 C 12.447606 44.538384 11.742494 44.303228 10.998047 43.964844 L 7.2675781 42.269531 L 9.6425781 32.072266 L 6.6347656 35.080078 L 1.2578125 29.703125 C 0.99862401 29.443925 0.75749138 29.315292 0.55664062 29.306641 z M 47.443359 29.306641 C 47.242883 29.315423 47.001776 29.443925 46.742188 29.703125 L 41.363281 35.080078 L 39.722656 33.439453 C 39.547066 34.571697 39.261776 35.681213 38.847656 36.746094 C 38.080231 38.71947 36.849342 40.51136 35.300781 41.953125 L 35.265625 41.984375 L 35.230469 42.015625 C 34.402784 42.757687 33.491924 43.390374 32.519531 43.925781 L 29.701172 46.744141 C 29.010003 47.434274 29.24368 48 30.220703 48 L 47.111328 48 C 47.600906 48 47.998047 47.599861 47.998047 47.111328 L 47.998047 30.222656 C 47.998047 29.611323 47.777486 29.292003 47.443359 29.306641 z "
       transform="matrix(0.93754163,0,0,0.93749997,547.467,116.493)" />
  </g>
  <g
     aria-label="3"
     id="text41453"
     style="font-weight:bold;font-size:53.3333px;font-family:'Ubuntu Mono';-inkscape-font-specification:'Ubuntu Mono Bold';fill:#a0a0a0;stroke:#000000;stroke-width:10">
    <g
       id="path58753">
      <path
         style="color:#000000;-inkscape-font-specification:'Ubuntu Mono Bold';stroke:none;-inkscape-stroke:none"
         d="m 22.240001,41.226658 q -1.226666,0 -2.613332,-0.213333 -1.333332,-0.16 -2.613332,-0.426667 -1.226666,-0.266666 -2.293332,-0.586666 -1.066666,-0.32 -1.653332,-0.586666 l 1.279999,-5.49333 q 1.226666,0.533333 3.146665,1.119999 1.973332,0.586666 4.693331,0.586666 3.359998,0 4.69333,-1.439999 1.386666,-1.439999 1.386666,-3.573331 0,-2.613332 -2.079999,-3.626664 -2.079998,-1.066666 -5.279997,-1.066666 h -2.026665 v -5.439997 h 2.453332 q 1.013333,0 2.026665,-0.213333 1.013333,-0.213334 1.813333,-0.693333 0.799999,-0.48 1.279999,-1.28 0.533333,-0.799999 0.533333,-2.026665 0,-1.813332 -1.12,-2.826665 -1.066666,-1.066666 -2.986664,-1.066666 -1.866666,0 -3.733332,0.64 -1.813332,0.586666 -3.146664,1.493332 L 13.653339,9.7066769 q 1.44,-0.9599994 3.786665,-1.9199989 2.399998,-1.0133327 5.386663,-1.0133327 2.773332,0 4.799997,0.6933329 2.079999,0.693333 3.413332,1.9733322 1.333332,1.2266656 1.973332,2.9333316 0.64,1.706666 0.64,3.679998 0,1.973332 -1.12,3.786664 -1.119999,1.813332 -2.986665,2.773332 2.559999,1.066666 3.946665,3.146665 1.439999,2.079998 1.439999,4.959997 0,2.293332 -0.746666,4.213331 -0.746667,1.919998 -2.293332,3.359998 -1.546666,1.386665 -3.946665,2.186665 -2.399998,0.746666 -5.706663,0.746666 z"
         id="path58776" />
    </g>
  </g>
</svg>
