<?xml version="1.0" encoding="UTF-8" standalone="no"?>
<svg
   height="48"
   width="48"
   version="1.1"
   id="svg39587"
   sodipodi:docname="max-6.svg"
   inkscape:version="1.1 (c4e8f9ed74, 2021-05-24)"
   xmlns:inkscape="http://www.inkscape.org/namespaces/inkscape"
   xmlns:sodipodi="http://sodipodi.sourceforge.net/DTD/sodipodi-0.dtd"
   xmlns="http://www.w3.org/2000/svg"
   xmlns:svg="http://www.w3.org/2000/svg">
  <defs
     id="defs39591" />
  <sodipodi:namedview
     id="namedview39589"
     pagecolor="#505050"
     bordercolor="#eeeeee"
     borderopacity="1"
     inkscape:pageshadow="0"
     inkscape:pageopacity="0"
     inkscape:pagecheckerboard="0"
     showgrid="false"
     inkscape:zoom="17.3125"
     inkscape:cx="23.971119"
     inkscape:cy="22.440433"
     inkscape:window-width="1918"
     inkscape:window-height="1045"
     inkscape:window-x="1920"
     inkscape:window-y="33"
     inkscape:window-maximized="1"
     inkscape:current-layer="svg39587" />
  <g
     fill="#a0a0a0"
     transform="matrix(1.0666193 0 0 1.0666667 -583.93887 -124.2592)"
     id="g39585">
    <path
       id="path39577"
       style="color:#000000;fill:#a0a0a0;stroke-width:1.06664;-inkscape-stroke:none"
       d="M 0.890625 0 C 0.40104674 0 0.001953125 0.40013853 0.001953125 0.88867188 L 0.001953125 17.777344 C 0.001953125 18.755477 0.56752973 18.988075 1.2597656 18.296875 L 6.6367188 12.919922 L 9.9316406 16.214844 C 11.096581 13.333583 12.771757 10.75418 14.929688 8.6425781 L 12.921875 6.6347656 L 18.300781 1.2558594 C 18.989817 0.565726 18.75632 0 17.779297 0 L 0.890625 0 z M 30.222656 0 C 29.245633 0 29.008936 0.565726 29.701172 1.2558594 L 30.570312 2.125 C 31.365676 2.0689195 32.171064 2.0390625 32.986328 2.0390625 L 37.664062 2.0390625 L 38.576172 15.708984 L 41.365234 12.919922 L 46.744141 18.296875 C 47.43531 18.988075 48 18.75441 48 17.777344 L 48 0.88867188 L 47.998047 0.88867188 C 47.998047 0.39907186 47.600906 -7.4014868e-17 47.111328 0 L 30.222656 0 z M 31.140625 15.392578 C 31.147345 15.395478 31.153456 15.399544 31.160156 15.402344 C 31.167776 15.405644 31.175994 15.406856 31.183594 15.410156 L 31.140625 15.392578 z M 36.728516 17.556641 L 34.699219 17.607422 C 35.062024 17.903555 35.433741 18.190719 35.779297 18.505859 L 36.728516 17.556641 z M 0.55664062 29.306641 C 0.22188937 29.292222 0 29.61199 0 30.222656 L 0 47.111328 C 0 47.600928 0.39909362 48 0.88867188 48 L 17.779297 48 C 18.75632 48 18.990884 47.434274 18.300781 46.744141 L 14.441406 42.884766 C 13.617559 42.280049 12.856735 41.590252 12.181641 40.804688 L 12.154297 40.773438 L 12.126953 40.742188 C 10.319768 38.566872 9.2370012 35.973345 8.6542969 33.060547 L 6.6347656 35.080078 L 1.2578125 29.703125 C 0.99862401 29.443925 0.75749138 29.315292 0.55664062 29.306641 z M 47.443359 29.306641 C 47.242883 29.315423 47.001776 29.443925 46.742188 29.703125 L 41.363281 35.080078 L 39.515625 33.232422 C 39.382768 33.857626 39.228154 34.479018 39.03125 35.091797 C 38.464063 36.968119 37.55524 38.734882 36.353516 40.287109 C 35.415676 41.498485 34.283086 42.550801 33.021484 43.423828 L 29.701172 46.744141 C 29.010003 47.434274 29.24368 48 30.220703 48 L 47.111328 48 C 47.600906 48 47.998047 47.599861 47.998047 47.111328 L 47.998047 30.222656 C 47.998047 29.611323 47.777486 29.292003 47.443359 29.306641 z M 33.121094 32.763672 C 33.113154 32.799394 33.086425 32.829554 33.078125 32.865234 C 33.065045 32.914465 33.070261 32.968558 33.056641 33.017578 L 33.121094 32.763672 z M 31.78125 36.011719 C 31.76264 36.042739 31.726051 36.059034 31.707031 36.089844 C 31.682651 36.127541 31.679187 36.175551 31.654297 36.212891 L 31.78125 36.011719 z "
       transform="matrix(0.93754163,0,0,0.93749997,547.467,116.493)" />
  </g>
  <g
     aria-label="6"
     id="text41453"
     style="font-weight:bold;font-size:53.3333px;font-family:'Ubuntu Mono';-inkscape-font-specification:'Ubuntu Mono Bold';fill:#a0a0a0;stroke:#000000;stroke-width:10">
    <g
       id="path86885">
      <path
         style="color:#000000;-inkscape-font-specification:'Ubuntu Mono Bold';stroke:none;-inkscape-stroke:none"
         d="m 23.493334,24.586668 q -1.013333,0 -2.079999,0.213333 -1.066666,0.213334 -1.759999,0.586667 -0.05333,0.479999 -0.106667,0.959999 0,0.48 0,1.013333 0,1.546666 0.213334,2.986665 0.213333,1.386666 0.746666,2.506665 0.533333,1.119999 1.439999,1.813332 0.959999,0.64 2.346665,0.64 1.12,0 1.919999,-0.533333 0.8,-0.533333 1.279999,-1.333333 0.533333,-0.799999 0.746666,-1.759999 0.266667,-0.959999 0.266667,-1.866665 0,-2.506665 -1.119999,-3.839998 -1.12,-1.386666 -3.893331,-1.386666 z m 0.853332,-5.439997 q 2.879999,0 4.853331,0.853333 2.026665,0.853333 3.306665,2.293332 1.279999,1.439999 1.813332,3.359998 0.586666,1.919999 0.586666,4.053331 0,1.919999 -0.639999,3.893331 -0.586667,1.973332 -1.866666,3.626665 -1.279999,1.653332 -3.253331,2.719998 -1.973333,1.013333 -4.693331,1.013333 -5.546663,0 -8.479995,-3.413332 -2.879998,-3.466664 -2.879998,-10.773327 0,-4.799997 1.386666,-8.479994 1.439999,-3.679998 4.053331,-6.186663 2.613331,-2.5066656 6.293329,-3.7866648 3.679998,-1.2799993 8.159995,-1.2799993 l 0.373333,5.5999971 q -2.133332,0.05333 -4.159997,0.426666 -2.026666,0.373333 -3.733331,1.279999 -1.706666,0.853333 -2.986665,2.239999 -1.226666,1.386666 -1.813332,3.466664 1.013332,-0.426666 1.973332,-0.639999 Q 23.6,19.146671 24.346666,19.146671 Z"
         id="path86908" />
    </g>
  </g>
</svg>
