<?xml version="1.0" encoding="UTF-8" standalone="no"?>
<svg
   height="48"
   width="48"
   version="1.1"
   id="svg896"
   sodipodi:docname="max-1.svg"
   inkscape:version="1.1 (c4e8f9ed74, 2021-05-24)"
   xmlns:inkscape="http://www.inkscape.org/namespaces/inkscape"
   xmlns:sodipodi="http://sodipodi.sourceforge.net/DTD/sodipodi-0.dtd"
   xmlns="http://www.w3.org/2000/svg"
   xmlns:svg="http://www.w3.org/2000/svg">
  <defs
     id="defs900" />
  <sodipodi:namedview
     id="namedview898"
     pagecolor="#505050"
     bordercolor="#eeeeee"
     borderopacity="1"
     inkscape:pageshadow="0"
     inkscape:pageopacity="0"
     inkscape:pagecheckerboard="0"
     showgrid="false"
     inkscape:zoom="17.4375"
     inkscape:cx="24"
     inkscape:cy="25.835125"
     inkscape:window-width="1918"
     inkscape:window-height="1045"
     inkscape:window-x="1920"
     inkscape:window-y="33"
     inkscape:window-maximized="1"
     inkscape:current-layer="svg896" />
  <g
     fill="#a0a0a0"
     transform="matrix(1.0666193 0 0 1.0666667 -583.93887 -124.2592)"
     id="g894">
    <path
       id="path886"
       style="color:#000000;fill:#a0a0a0;stroke-width:1.06664;-inkscape-stroke:none"
       d="M 0.890625 0 C 0.40104674 0 0.001953125 0.40013853 0.001953125 0.88867188 L 0.001953125 17.777344 C 0.001953125 18.755477 0.56752973 18.988075 1.2597656 18.296875 L 6.6367188 12.919922 L 7.3964844 13.679688 L 6.53125 11.474609 L 11.285156 9.6914062 C 11.938967 9.4462271 12.710346 9.1077175 13.578125 8.6738281 C 13.878597 8.5235924 14.18012 8.3577447 14.482422 8.1953125 L 12.921875 6.6347656 L 18.300781 1.2558594 C 18.989817 0.565726 18.75632 0 17.779297 0 L 0.890625 0 z M 30.222656 0 C 29.245633 0 29.008936 0.565726 29.701172 1.2558594 L 30.939453 2.4941406 L 33.400391 2.4941406 L 33.400391 4.953125 L 35.082031 6.6347656 L 33.400391 8.3164062 L 33.400391 20.884766 L 41.365234 12.919922 L 46.744141 18.296875 C 47.43531 18.988075 48 18.75441 48 17.777344 L 48 0.88867188 L 47.998047 0.88867188 C 47.998047 0.39907186 47.600906 -7.4014868e-17 47.111328 0 L 30.222656 0 z M 15.9375 25.777344 L 11.648438 30.066406 L 16.839844 30.066406 L 16.839844 26.679688 L 15.9375 25.777344 z M 33.400391 27.117188 L 33.400391 30.066406 L 36.349609 30.066406 L 33.400391 27.117188 z M 0.55664062 29.306641 C 0.22188937 29.292222 0 29.61199 0 30.222656 L 0 47.111328 C 0 47.600928 0.39909362 48 0.88867188 48 L 17.779297 48 C 18.75632 48 18.990884 47.434274 18.300781 46.744141 L 17.0625 45.505859 L 9.90625 45.505859 L 9.90625 31.808594 L 6.6347656 35.080078 L 1.2578125 29.703125 C 0.99862401 29.443925 0.75749138 29.315292 0.55664062 29.306641 z M 47.443359 29.306641 C 47.242883 29.315423 47.001776 29.443925 46.742188 29.703125 L 41.363281 35.080078 L 39.960938 33.677734 L 39.960938 45.505859 L 30.939453 45.505859 L 29.701172 46.744141 C 29.010003 47.434274 29.24368 48 30.220703 48 L 47.111328 48 C 47.600906 48 47.998047 47.599861 47.998047 47.111328 L 47.998047 30.222656 C 47.998047 29.611323 47.777486 29.292003 47.443359 29.306641 z "
       transform="matrix(0.93754163,0,0,0.93749997,547.467,116.493)" />
  </g>
  <g
     aria-label="1"
     id="text2037"
     style="font-weight:bold;font-size:53.3333px;font-family:'Ubuntu Mono';-inkscape-font-specification:'Ubuntu Mono Bold';fill:#a0a0a0;stroke:#000000;stroke-width:10">
    <g
       id="path13548">
      <path
         style="color:#000000;-inkscape-font-specification:'Ubuntu Mono Bold';stroke:none;-inkscape-stroke:none"
         d="M 21.840001,35.06666 V 16.613338 q -1.493332,1.066666 -3.413331,1.919998 -1.919999,0.8 -3.253331,1.28 l -2.133332,-5.439997 q 1.279999,-0.48 2.773331,-1.226666 1.493333,-0.746666 2.986665,-1.653332 1.493333,-0.906667 2.826665,-1.9199992 Q 22.960001,8.560009 23.92,7.493343 h 4.479997 V 35.06666 h 6.559997 v 5.439997 H 14.906672 V 35.06666 Z"
         id="path13575" />
    </g>
  </g>
</svg>
