<?xml version="1.0" encoding="UTF-8" standalone="no"?>
<svg
   height="48"
   width="48"
   version="1.1"
   id="svg39587"
   sodipodi:docname="max-4.svg"
   inkscape:version="1.1 (c4e8f9ed74, 2021-05-24)"
   xmlns:inkscape="http://www.inkscape.org/namespaces/inkscape"
   xmlns:sodipodi="http://sodipodi.sourceforge.net/DTD/sodipodi-0.dtd"
   xmlns="http://www.w3.org/2000/svg"
   xmlns:svg="http://www.w3.org/2000/svg">
  <defs
     id="defs39591" />
  <sodipodi:namedview
     id="namedview39589"
     pagecolor="#505050"
     bordercolor="#eeeeee"
     borderopacity="1"
     inkscape:pageshadow="0"
     inkscape:pageopacity="0"
     inkscape:pagecheckerboard="0"
     showgrid="false"
     inkscape:zoom="17.3125"
     inkscape:cx="13.025271"
     inkscape:cy="23.768953"
     inkscape:window-width="1918"
     inkscape:window-height="1045"
     inkscape:window-x="1920"
     inkscape:window-y="33"
     inkscape:window-maximized="1"
     inkscape:current-layer="svg39587" />
  <g
     fill="#a0a0a0"
     transform="matrix(1.0666193 0 0 1.0666667 -583.93887 -124.2592)"
     id="g39585">
    <path
       id="path39577"
       style="color:#000000;fill:#a0a0a0;stroke-width:1.06664;-inkscape-stroke:none"
       d="M 0.890625 0 C 0.40104674 0 0.001953125 0.40013853 0.001953125 0.88867188 L 0.001953125 17.777344 C 0.001953125 18.755477 0.56752973 18.988075 1.2597656 18.296875 L 6.6367188 12.919922 L 11.910156 18.193359 C 12.599775 17.117975 13.319578 16.034265 14.076172 14.941406 C 15.043856 13.543641 16.051681 12.166235 17.095703 10.808594 L 12.921875 6.6347656 L 18.300781 1.2558594 C 18.989817 0.565726 18.75632 0 17.779297 0 L 0.890625 0 z M 30.222656 0 C 29.245633 0 29.008936 0.565726 29.701172 1.2558594 L 30.302734 1.8574219 L 30.8125 1.2050781 L 30.8125 2.3671875 L 30.939453 2.4941406 L 32.373047 2.4941406 L 37.373047 2.4941406 L 37.373047 16.912109 L 41.365234 12.919922 L 46.744141 18.296875 C 47.43531 18.988075 48 18.75441 48 17.777344 L 48 0.88867188 L 47.998047 0.88867188 C 47.998047 0.39907186 47.600906 -7.4014868e-17 47.111328 0 L 30.222656 0 z M 0.55664062 29.306641 C 0.22188937 29.292222 0 29.61199 0 30.222656 L 0 47.111328 C 0 47.600928 0.39909362 48 0.88867188 48 L 17.779297 48 C 18.75632 48 18.990884 47.434274 18.300781 46.744141 L 12.921875 41.365234 L 16.566406 37.720703 L 7.0527344 37.720703 L 7.0527344 34.662109 L 6.6347656 35.080078 L 1.2578125 29.703125 C 0.99862401 29.443925 0.75749138 29.315292 0.55664062 29.306641 z M 47.443359 29.306641 C 47.242883 29.315423 47.001776 29.443925 46.742188 29.703125 L 41.363281 35.080078 L 40.947266 34.664062 L 40.947266 37.720703 L 37.373047 37.720703 L 37.373047 45.505859 L 30.939453 45.505859 L 29.701172 46.744141 C 29.010003 47.434274 29.24368 48 30.220703 48 L 47.111328 48 C 47.600906 48 47.998047 47.599861 47.998047 47.111328 L 47.998047 30.222656 C 47.998047 29.611323 47.777486 29.292003 47.443359 29.306641 z "
       transform="matrix(0.93754163,0,0,0.93749997,547.467,116.493)" />
  </g>
  <g
     aria-label="4"
     id="text41453"
     style="font-weight:bold;font-size:53.3333px;font-family:'Ubuntu Mono';-inkscape-font-specification:'Ubuntu Mono Bold';fill:#a0a0a0;stroke:#000000;stroke-width:10">
    <g
       id="path72626">
      <path
         style="color:#000000;-inkscape-font-specification:'Ubuntu Mono Bold';stroke:none;-inkscape-stroke:none"
         d="m 25.813332,15.706671 q -0.959999,1.226666 -1.973332,2.613332 -1.013333,1.386666 -2.026665,2.933332 -0.96,1.493332 -1.866666,3.039998 -0.906666,1.546666 -1.599999,3.039998 h 7.466662 z m 6.559996,-8.213328 v 19.839988 h 3.573332 v 5.386664 h -3.573332 v 7.786662 H 25.813332 V 32.719995 H 12.05334 v -4.799998 q 1.013333,-2.079998 2.613332,-4.69333 1.599999,-2.666665 3.519998,-5.439997 1.919999,-2.773331 4.053331,-5.439997 2.133332,-2.7199979 4.266664,-4.85333 z"
         id="path72649" />
    </g>
  </g>
</svg>
