<?xml version="1.0" encoding="UTF-8" standalone="no"?>
<svg
   height="48"
   width="48"
   version="1.1"
   id="svg283293"
   sodipodi:docname="tile-2.svg"
   inkscape:version="1.1 (c4e8f9ed74, 2021-05-24)"
   xmlns:inkscape="http://www.inkscape.org/namespaces/inkscape"
   xmlns:sodipodi="http://sodipodi.sourceforge.net/DTD/sodipodi-0.dtd"
   xmlns="http://www.w3.org/2000/svg"
   xmlns:svg="http://www.w3.org/2000/svg">
  <defs
     id="defs283297" />
  <sodipodi:namedview
     id="namedview283295"
     pagecolor="#505050"
     bordercolor="#eeeeee"
     borderopacity="1"
     inkscape:pageshadow="0"
     inkscape:pageopacity="0"
     inkscape:pagecheckerboard="0"
     showgrid="false"
     inkscape:zoom="17.3125"
     inkscape:cx="13.025271"
     inkscape:cy="23.133574"
     inkscape:window-width="1918"
     inkscape:window-height="1045"
     inkscape:window-x="1920"
     inkscape:window-y="33"
     inkscape:window-maximized="1"
     inkscape:current-layer="svg283293" />
  <g
     fill="#a0a0a0"
     id="g283291">
    <path
       id="path283285"
       style="color:#000000;fill:#a0a0a0;-inkscape-stroke:none"
       d="M 0 0 L 0 48 L 20 48 L 20 45.880859 L 9.90625 45.880859 L 8.8378906 42.316406 C 8.5335079 41.301796 8.4667969 40.413541 8.4667969 39.546875 L 8.4667969 39.380859 L 8.4785156 39.214844 C 8.5111216 38.725659 8.5195312 38.361351 8.5195312 38.425781 C 8.5195312 36.048007 8.9617784 33.704417 9.8847656 31.550781 L 9.9042969 31.503906 L 9.9238281 31.458984 C 10.764573 29.600495 11.821652 27.864535 13.082031 26.289062 L 13.087891 26.283203 L 13.09375 26.277344 C 13.819865 25.37596 14.625479 24.591932 15.408203 23.773438 L 6.3652344 11.027344 L 9.2050781 8.0449219 C 11.100188 6.0550564 13.39503 4.4974066 15.9375 3.5195312 L 15.953125 3.5136719 L 15.96875 3.5078125 C 17.288436 3.0098177 18.637317 2.6429693 20 2.4101562 L 20 0 L 0 0 z M 28 0 L 28 2.7402344 C 28.242464 2.8051015 28.487052 2.8622251 28.726562 2.9375 C 30.529745 3.5042146 32.22758 4.3970967 33.691406 5.5898438 C 35.24585 6.8564274 36.481021 8.4950844 37.333984 10.296875 C 38.275112 12.248773 38.679688 14.398957 38.679688 16.560547 C 38.679688 17.718951 38.527703 18.877405 38.240234 20 L 48 20 L 48 0 L 28 0 z M 29.068359 10.173828 C 29.082409 10.186038 29.085669 10.20643 29.099609 10.21875 C 29.116609 10.23401 29.141333 10.238506 29.158203 10.253906 L 29.068359 10.173828 z M 33.673828 28 C 33.306668 28.424575 32.930204 28.843135 32.537109 29.251953 C 32.14208 29.662784 31.728444 30.040967 31.326172 30.439453 L 40.173828 30.439453 L 40.173828 45.880859 L 28 45.880859 L 28 48 L 48 48 L 48 28 L 33.673828 28 z M 19.158203 28.505859 L 19.066406 28.613281 C 19.084136 28.592001 19.105247 28.573954 19.123047 28.552734 C 19.136047 28.537924 19.145163 28.520639 19.158203 28.505859 z " />
  </g>
  <g
     aria-label="2"
     id="text2159"
     style="font-weight:bold;font-size:53.3333px;font-family:'Ubuntu Mono';-inkscape-font-specification:'Ubuntu Mono Bold';fill:#a0a0a0;stroke:#000000;stroke-width:10">
    <g
       id="path32208">
      <path
         style="color:#000000;-inkscape-font-specification:'Ubuntu Mono Bold';stroke:none;-inkscape-stroke:none"
         d="m 33.679994,16.560004 q 0,1.706666 -0.639999,3.306665 -0.64,1.546666 -1.706666,3.039998 -1.066666,1.493332 -2.399999,2.879998 -1.333332,1.386666 -2.719998,2.666665 -0.693333,0.64 -1.599999,1.546666 -0.906666,0.853333 -1.706666,1.813332 -0.799999,0.906666 -1.386665,1.866666 -0.533333,0.959999 -0.533333,1.759999 H 35.173327 V 40.87999 H 13.626673 q -0.16,-0.533333 -0.16,-1.333333 0.05333,-0.799999 0.05333,-1.119999 0,-2.666665 0.96,-4.906664 1.013332,-2.239999 2.506665,-4.106664 1.546666,-1.919999 3.253331,-3.519998 1.759999,-1.653332 3.253332,-3.146665 1.546665,-1.493332 2.506665,-2.879998 1.013333,-1.386666 1.013333,-2.826665 0,-2.026666 -1.226666,-3.093332 -1.226666,-1.119999 -3.093332,-1.119999 -1.546666,0 -3.253331,0.746666 -1.706666,0.746666 -3.359998,2.506665 L 12.826673,11.49334 q 2.133332,-2.2399982 4.906664,-3.3066642 2.826665,-1.0666661 5.599997,-1.0666661 2.026665,0 3.893331,0.5866664 1.866665,0.5866663 3.306664,1.7599989 1.44,1.173333 2.293332,2.986665 0.853333,1.759999 0.853333,4.106664 z"
         id="path32231" />
    </g>
  </g>
</svg>
