<?xml version="1.0" encoding="UTF-8" standalone="no"?>
<svg
   height="48"
   width="48"
   version="1.1"
   id="svg283293"
   sodipodi:docname="tile-3.svg"
   inkscape:version="1.1 (c4e8f9ed74, 2021-05-24)"
   xmlns:inkscape="http://www.inkscape.org/namespaces/inkscape"
   xmlns:sodipodi="http://sodipodi.sourceforge.net/DTD/sodipodi-0.dtd"
   xmlns="http://www.w3.org/2000/svg"
   xmlns:svg="http://www.w3.org/2000/svg">
  <defs
     id="defs283297" />
  <sodipodi:namedview
     id="namedview283295"
     pagecolor="#505050"
     bordercolor="#eeeeee"
     borderopacity="1"
     inkscape:pageshadow="0"
     inkscape:pageopacity="0"
     inkscape:pagecheckerboard="0"
     showgrid="false"
     inkscape:zoom="17.3125"
     inkscape:cx="13.025271"
     inkscape:cy="24.115523"
     inkscape:window-width="1918"
     inkscape:window-height="1045"
     inkscape:window-x="1920"
     inkscape:window-y="33"
     inkscape:window-maximized="1"
     inkscape:current-layer="svg283293" />
  <g
     fill="#a0a0a0"
     id="g283291">
    <path
       id="path283285"
       style="color:#000000;fill:#a0a0a0;-inkscape-stroke:none"
       d="M 0 0 L 0 48 L 20 48 L 20 46.099609 C 19.638027 46.060566 19.274228 46.014694 18.908203 45.958984 C 17.92368 45.837455 16.950989 45.681765 15.994141 45.482422 L 15.972656 45.476562 L 15.951172 45.472656 C 15.021684 45.270594 14.133448 45.044137 13.283203 44.789062 C 12.447606 44.538384 11.742494 44.303228 10.998047 43.964844 L 7.2675781 42.269531 L 10.837891 26.943359 L 13.880859 28.265625 L 13.880859 21.556641 L 7.2402344 7.9726562 L 10.878906 5.546875 C 12.233262 4.6439717 13.758551 3.8950344 15.517578 3.1738281 C 16.943764 2.5739351 18.448628 2.1763742 20 1.9628906 L 20 0 L 0 0 z M 28 0 L 28 2.3710938 C 28.414883 2.476848 28.825918 2.5944317 29.230469 2.7324219 C 31.165994 3.3808863 32.97829 4.3899655 34.466797 5.8085938 C 35.890314 7.1320314 37.013556 8.7991485 37.695312 10.617188 C 38.344437 12.348185 38.654297 14.196641 38.654297 16.052734 C 38.654297 17.399887 38.395805 18.736928 37.939453 20 L 48 20 L 48 0 L 28 0 z M 17.607422 8.2558594 L 17.525391 8.2832031 C 17.537951 8.2788931 17.551883 8.2816237 17.564453 8.2773438 C 17.579973 8.2722828 17.591882 8.2608894 17.607422 8.2558594 z M 29.220703 9.7324219 C 29.251313 9.7601164 29.258962 9.8057724 29.289062 9.8339844 C 29.321934 9.8656734 29.369984 9.8719329 29.402344 9.9042969 L 29.220703 9.7324219 z M 39.673828 28 C 39.842407 28.897378 39.933594 29.809303 39.933594 30.720703 C 39.933594 32.792225 39.589169 34.839346 38.847656 36.746094 C 38.080231 38.71947 36.849342 40.51136 35.300781 41.953125 L 35.265625 41.984375 L 35.230469 42.015625 C 33.598109 43.479119 31.643845 44.517155 29.527344 45.222656 L 29.480469 45.240234 L 29.431641 45.253906 C 28.962351 45.399907 28.484403 45.524123 28 45.634766 L 28 48 L 48 48 L 48 28 L 39.673828 28 z M 30.548828 37.583984 C 30.534878 37.599054 30.517916 37.606174 30.503906 37.621094 C 30.494846 37.630584 30.491522 37.644797 30.482422 37.654297 L 30.548828 37.583984 z " />
  </g>
  <g
     aria-label="3"
     id="text2159"
     style="font-weight:bold;font-size:53.3333px;font-family:'Ubuntu Mono';-inkscape-font-specification:'Ubuntu Mono Bold';fill:#a0a0a0;stroke:#000000;stroke-width:10">
    <g
       id="path50198">
      <path
         style="color:#000000;-inkscape-font-specification:'Ubuntu Mono Bold';stroke:none;-inkscape-stroke:none"
         d="m 22.240001,41.226658 q -1.226666,0 -2.613332,-0.213333 -1.333332,-0.16 -2.613332,-0.426667 -1.226666,-0.266666 -2.293332,-0.586666 -1.066666,-0.32 -1.653332,-0.586666 l 1.279999,-5.49333 q 1.226666,0.533333 3.146665,1.119999 1.973332,0.586666 4.693331,0.586666 3.359998,0 4.69333,-1.439999 1.386666,-1.439999 1.386666,-3.573331 0,-2.613332 -2.079999,-3.626664 -2.079998,-1.066666 -5.279997,-1.066666 h -2.026665 v -5.439997 h 2.453332 q 1.013333,0 2.026665,-0.213333 1.013333,-0.213334 1.813333,-0.693333 0.799999,-0.48 1.279999,-1.28 0.533333,-0.799999 0.533333,-2.026665 0,-1.813332 -1.12,-2.826665 -1.066666,-1.066666 -2.986664,-1.066666 -1.866666,0 -3.733332,0.64 -1.813332,0.586666 -3.146664,1.493332 L 13.653339,9.7066769 q 1.44,-0.9599994 3.786665,-1.9199989 2.399998,-1.0133327 5.386663,-1.0133327 2.773332,0 4.799997,0.6933329 2.079999,0.693333 3.413332,1.9733322 1.333332,1.2266656 1.973332,2.9333316 0.64,1.706666 0.64,3.679998 0,1.973332 -1.12,3.786664 -1.119999,1.813332 -2.986665,2.773332 2.559999,1.066666 3.946665,3.146665 1.439999,2.079998 1.439999,4.959997 0,2.293332 -0.746666,4.213331 -0.746667,1.919998 -2.293332,3.359998 -1.546666,1.386665 -3.946665,2.186665 -2.399998,0.746666 -5.706663,0.746666 z"
         id="path50221" />
    </g>
  </g>
</svg>
