<?xml version="1.0" encoding="UTF-8" standalone="no"?>
<svg
   height="48"
   width="48"
   version="1.1"
   id="svg283293"
   sodipodi:docname="tile-5.svg"
   inkscape:version="1.1 (c4e8f9ed74, 2021-05-24)"
   xmlns:inkscape="http://www.inkscape.org/namespaces/inkscape"
   xmlns:sodipodi="http://sodipodi.sourceforge.net/DTD/sodipodi-0.dtd"
   xmlns="http://www.w3.org/2000/svg"
   xmlns:svg="http://www.w3.org/2000/svg">
  <defs
     id="defs283297" />
  <sodipodi:namedview
     id="namedview283295"
     pagecolor="#505050"
     bordercolor="#eeeeee"
     borderopacity="1"
     inkscape:pageshadow="0"
     inkscape:pageopacity="0"
     inkscape:pagecheckerboard="0"
     showgrid="false"
     inkscape:zoom="17.3125"
     inkscape:cx="13.025271"
     inkscape:cy="23.768953"
     inkscape:window-width="1918"
     inkscape:window-height="1045"
     inkscape:window-x="1920"
     inkscape:window-y="33"
     inkscape:window-maximized="1"
     inkscape:current-layer="svg283293" />
  <g
     fill="#a0a0a0"
     id="g283291">
    <path
       id="path283285"
       style="color:#000000;fill:#a0a0a0;-inkscape-stroke:none"
       d="M 0 0 L 0 48 L 20 48 L 20 45.775391 C 19.570942 45.74408 19.142182 45.709953 18.710938 45.658203 C 17.71595 45.538805 16.747133 45.373742 15.800781 45.171875 C 14.830091 44.99955 13.896982 44.784594 13.001953 44.501953 L 12.962891 44.490234 L 12.925781 44.476562 C 12.154021 44.21931 11.49067 43.975804 10.777344 43.619141 L 7.2070312 41.833984 L 10.298828 29.212891 L 9.9433594 29.212891 L 10.607422 23.623047 C 10.954827 20.704841 11.233806 17.859799 11.441406 15.091797 L 11.439453 15.097656 C 11.648923 12.269814 11.805937 9.5527415 11.910156 6.9472656 L 12.103516 2.1464844 L 20 2.1464844 L 20 0 L 0 0 z M 28 0 L 28 2.1464844 L 38.759766 2.1464844 L 38.759766 17.585938 L 33.498047 17.585938 C 33.9944 17.916721 34.518396 18.205232 34.976562 18.595703 C 35.483453 19.027806 35.94752 19.500573 36.378906 20 L 48 20 L 48 0 L 28 0 z M 39.841797 28 C 39.935292 28.723209 39.986328 29.453751 39.986328 30.1875 C 39.986328 32.297782 39.607022 34.391482 38.820312 36.332031 L 38.810547 36.353516 L 38.802734 36.376953 C 37.969752 38.376113 36.648548 40.163462 35.017578 41.583984 C 33.337527 43.047254 31.339213 44.10181 29.177734 44.806641 C 28.790697 44.932848 28.396939 45.042722 28 45.144531 L 28 48 L 48 48 L 48 28 L 39.841797 28 z M 16.757812 29.294922 C 17.131532 29.46877 17.718339 29.702556 18.613281 29.939453 C 18.935633 30.024782 19.40952 30.106812 20 30.166016 L 20 29.457031 C 19.081882 29.377084 17.943852 29.328944 16.757812 29.294922 z " />
  </g>
  <g
     aria-label="5"
     id="text2159"
     style="font-weight:bold;font-size:53.3333px;font-family:'Ubuntu Mono';-inkscape-font-specification:'Ubuntu Mono Bold';fill:#a0a0a0;stroke:#000000;stroke-width:10">
    <g
       id="path76690">
      <path
         style="color:#000000;-inkscape-font-specification:'Ubuntu Mono Bold';stroke:none;-inkscape-stroke:none"
         d="m 28.266664,30.453331 q 0,-1.386666 -0.48,-2.506665 -0.426666,-1.173332 -1.813332,-1.973332 -1.333333,-0.853333 -3.839998,-1.279999 -2.506665,-0.48 -6.559996,-0.48 0.533333,-4.479997 0.853333,-8.746661 0.32,-4.319998 0.48,-8.3199954 H 33.759994 V 12.586675 H 22.400001 q -0.106667,1.706666 -0.266667,3.573332 -0.16,1.866665 -0.266666,3.039998 6.613329,0.426666 9.866661,3.199998 3.253331,2.773331 3.253331,7.786662 0,2.293332 -0.8,4.266664 -0.799999,1.919999 -2.453331,3.359998 -1.653333,1.439999 -4.106665,2.239999 -2.453332,0.799999 -5.706663,0.799999 -1.279999,0 -2.613332,-0.16 -1.333332,-0.16 -2.559998,-0.426666 -1.226666,-0.213333 -2.239999,-0.533333 -0.959999,-0.32 -1.493332,-0.586667 l 1.333332,-5.439996 q 1.173333,0.586666 2.986665,1.066666 1.813332,0.479999 4.533331,0.479999 1.919999,0 3.146665,-0.426666 1.279999,-0.426666 1.973332,-1.066666 0.746666,-0.693333 1.013332,-1.546666 0.266667,-0.853333 0.266667,-1.759999 z"
         id="path76713" />
    </g>
  </g>
</svg>
